<?xml version="1.0" encoding="UTF-8" standalone="no"?>
<!-- Created with Inkscape (http://www.inkscape.org/) -->

<svg
   xmlns:dc="http://purl.org/dc/elements/1.1/"
   xmlns:cc="http://creativecommons.org/ns#"
   xmlns:rdf="http://www.w3.org/1999/02/22-rdf-syntax-ns#"
   xmlns:svg="http://www.w3.org/2000/svg"
   xmlns="http://www.w3.org/2000/svg"
   xmlns:sodipodi="http://sodipodi.sourceforge.net/DTD/sodipodi-0.dtd"
   xmlns:inkscape="http://www.inkscape.org/namespaces/inkscape"
   width="210mm"
   height="297mm"
   viewBox="0 0 744.09448819 1052.3622047"
   id="svg2"
   version="1.1"
   inkscape:version="0.91 r13725"
   sodipodi:docname="treeStructure.svg">
  <sodipodi:namedview
     id="base"
     pagecolor="#ffffff"
     bordercolor="#666666"
     borderopacity="1.0"
     inkscape:pageopacity="0.0"
     inkscape:pageshadow="2"
     inkscape:zoom="1.4115384"
     inkscape:cx="531.61112"
     inkscape:cy="458.56609"
     inkscape:document-units="px"
     inkscape:current-layer="layer1"
     showgrid="false"
     inkscape:window-width="2560"
     inkscape:window-height="1416"
     inkscape:window-x="1920"
     inkscape:window-y="24"
     inkscape:window-maximized="1" />
  <defs
     id="defs4">
    <marker
       inkscape:stockid="Arrow1Lend"
       orient="auto"
       refY="0.0"
       refX="0.0"
       id="marker14817"
       style="overflow:visible;"
       inkscape:isstock="true">
      <path
         id="path14819"
         d="M 0.0,0.0 L 5.0,-5.0 L -12.5,0.0 L 5.0,5.0 L 0.0,0.0 z "
         style="fill-rule:evenodd;stroke:none;stroke-width:1pt;stroke-opacity:1;fill:none;fill-opacity:1"
         transform="scale(0.8) rotate(180) translate(12.5,0)" />
    </marker>
    <marker
       inkscape:stockid="Arrow1Lend"
       orient="auto"
       refY="0.0"
       refX="0.0"
       id="marker13702"
       style="overflow:visible;"
       inkscape:isstock="true">
      <path
         id="path13704"
         d="M 0.0,0.0 L 5.0,-5.0 L -12.5,0.0 L 5.0,5.0 L 0.0,0.0 z "
         style="fill-rule:evenodd;stroke:#000000;stroke-width:1pt;stroke-opacity:1;fill:#000000;fill-opacity:1"
         transform="scale(0.8) rotate(180) translate(12.5,0)" />
    </marker>
    <marker
       inkscape:collect="always"
       inkscape:isstock="true"
       style="overflow:visible;"
       id="marker13640"
       refX="0.0"
       refY="0.0"
       orient="auto"
       inkscape:stockid="Arrow1Lend">
      <path
         transform="scale(0.8) rotate(180) translate(12.5,0)"
         style="fill-rule:evenodd;stroke:#000000;stroke-width:1pt;stroke-opacity:1;fill:#000000;fill-opacity:1"
         d="M 0.0,0.0 L 5.0,-5.0 L -12.5,0.0 L 5.0,5.0 L 0.0,0.0 z "
         id="path13642" />
    </marker>
    <marker
       inkscape:collect="always"
       inkscape:stockid="Arrow1Lend"
       orient="auto"
       refY="0.0"
       refX="0.0"
       id="marker13580"
       style="overflow:visible;"
       inkscape:isstock="true">
      <path
         id="path13582"
         d="M 0.0,0.0 L 5.0,-5.0 L -12.5,0.0 L 5.0,5.0 L 0.0,0.0 z "
         style="fill-rule:evenodd;stroke:#000000;stroke-width:1pt;stroke-opacity:1;fill:#000000;fill-opacity:1"
         transform="scale(0.8) rotate(180) translate(12.5,0)" />
    </marker>
    <marker
       inkscape:collect="always"
       inkscape:isstock="true"
       style="overflow:visible;"
       id="marker13522"
       refX="0.0"
       refY="0.0"
       orient="auto"
       inkscape:stockid="Arrow1Lend">
      <path
         transform="scale(0.8) rotate(180) translate(12.5,0)"
         style="fill-rule:evenodd;stroke:#000000;stroke-width:1pt;stroke-opacity:1;fill:#000000;fill-opacity:1"
         d="M 0.0,0.0 L 5.0,-5.0 L -12.5,0.0 L 5.0,5.0 L 0.0,0.0 z "
         id="path13524" />
    </marker>
    <marker
       inkscape:collect="always"
       inkscape:stockid="Arrow1Lend"
       orient="auto"
       refY="0.0"
       refX="0.0"
       id="marker13466"
       style="overflow:visible;"
       inkscape:isstock="true">
      <path
         id="path13468"
         d="M 0.0,0.0 L 5.0,-5.0 L -12.5,0.0 L 5.0,5.0 L 0.0,0.0 z "
         style="fill-rule:evenodd;stroke:#000000;stroke-width:1pt;stroke-opacity:1;fill:#000000;fill-opacity:1"
         transform="scale(0.8) rotate(180) translate(12.5,0)" />
    </marker>
    <marker
       inkscape:collect="always"
       inkscape:isstock="true"
       style="overflow:visible;"
       id="marker11649"
       refX="0.0"
       refY="0.0"
       orient="auto"
       inkscape:stockid="Arrow1Lend">
      <path
         transform="scale(0.8) rotate(180) translate(12.5,0)"
         style="fill-rule:evenodd;stroke:#000000;stroke-width:1pt;stroke-opacity:1;fill:#000000;fill-opacity:1"
         d="M 0.0,0.0 L 5.0,-5.0 L -12.5,0.0 L 5.0,5.0 L 0.0,0.0 z "
         id="path11651" />
    </marker>
    <marker
       inkscape:collect="always"
       inkscape:stockid="Arrow1Lend"
       orient="auto"
       refY="0.0"
       refX="0.0"
       id="marker11178"
       style="overflow:visible;"
       inkscape:isstock="true">
      <path
         id="path11180"
         d="M 0.0,0.0 L 5.0,-5.0 L -12.5,0.0 L 5.0,5.0 L 0.0,0.0 z "
         style="fill-rule:evenodd;stroke:#000000;stroke-width:1pt;stroke-opacity:1;fill:#000000;fill-opacity:1"
         transform="scale(0.8) rotate(180) translate(12.5,0)" />
    </marker>
    <marker
       inkscape:collect="always"
       inkscape:isstock="true"
       style="overflow:visible;"
       id="marker10792"
       refX="0.0"
       refY="0.0"
       orient="auto"
       inkscape:stockid="Arrow1Lend">
      <path
         transform="scale(0.8) rotate(180) translate(12.5,0)"
         style="fill-rule:evenodd;stroke:#000000;stroke-width:1pt;stroke-opacity:1;fill:#000000;fill-opacity:1"
         d="M 0.0,0.0 L 5.0,-5.0 L -12.5,0.0 L 5.0,5.0 L 0.0,0.0 z "
         id="path10794" />
    </marker>
    <marker
       inkscape:collect="always"
       inkscape:stockid="Arrow1Lend"
       orient="auto"
       refY="0.0"
       refX="0.0"
       id="marker9827"
       style="overflow:visible;"
       inkscape:isstock="true">
      <path
         id="path9829"
         d="M 0.0,0.0 L 5.0,-5.0 L -12.5,0.0 L 5.0,5.0 L 0.0,0.0 z "
         style="fill-rule:evenodd;stroke:#000000;stroke-width:1pt;stroke-opacity:1;fill:#000000;fill-opacity:1"
         transform="scale(0.8) rotate(180) translate(12.5,0)" />
    </marker>
    <marker
       inkscape:isstock="true"
       style="overflow:visible;"
       id="Arrow1Lend"
       refX="0.0"
       refY="0.0"
       orient="auto"
       inkscape:stockid="Arrow1Lend"
       inkscape:collect="always">
      <path
         transform="scale(0.8) rotate(180) translate(12.5,0)"
         style="fill-rule:evenodd;stroke:#000000;stroke-width:1pt;stroke-opacity:1;fill:#000000;fill-opacity:1"
         d="M 0.0,0.0 L 5.0,-5.0 L -12.5,0.0 L 5.0,5.0 L 0.0,0.0 z "
         id="path4776" />
    </marker>
    <marker
       inkscape:isstock="true"
       style="overflow:visible"
       id="Arrow1Lstart"
       refX="0.0"
       refY="0.0"
       orient="auto"
       inkscape:stockid="Arrow1Lstart">
      <path
         transform="scale(0.8) translate(12.5,0)"
         style="fill-rule:evenodd;stroke:#000000;stroke-width:1pt;stroke-opacity:1;fill:#000000;fill-opacity:1"
         d="M 0.0,0.0 L 5.0,-5.0 L -12.5,0.0 L 5.0,5.0 L 0.0,0.0 z "
         id="path4773" />
    </marker>
    <marker
       inkscape:isstock="true"
       style="overflow:visible"
       id="Arrow1Lend-9"
       refX="0"
       refY="0"
       orient="auto"
       inkscape:stockid="Arrow1Lend">
      <path
         transform="matrix(-0.8,0,0,-0.8,-10,0)"
         style="fill:#000000;fill-opacity:1;fill-rule:evenodd;stroke:#000000;stroke-width:1pt;stroke-opacity:1"
         d="M 0,0 5,-5 -12.5,0 5,5 0,0 Z"
         id="path4776-2"
         inkscape:connector-curvature="0" />
    </marker>
    <marker
       inkscape:isstock="true"
       style="overflow:visible"
       id="Arrow1Lend-4"
       refX="0"
       refY="0"
       orient="auto"
       inkscape:stockid="Arrow1Lend">
      <path
         transform="matrix(-0.8,0,0,-0.8,-10,0)"
         style="fill:#000000;fill-opacity:1;fill-rule:evenodd;stroke:#000000;stroke-width:1pt;stroke-opacity:1"
         d="M 0,0 5,-5 -12.5,0 5,5 0,0 Z"
         id="path4776-7"
         inkscape:connector-curvature="0" />
    </marker>
    <marker
       inkscape:isstock="true"
       style="overflow:visible"
       id="Arrow1Lend-5"
       refX="0"
       refY="0"
       orient="auto"
       inkscape:stockid="Arrow1Lend">
      <path
         transform="matrix(-0.8,0,0,-0.8,-10,0)"
         style="fill:#000000;fill-opacity:1;fill-rule:evenodd;stroke:#000000;stroke-width:1pt;stroke-opacity:1"
         d="M 0,0 5,-5 -12.5,0 5,5 0,0 Z"
         id="path4776-4"
         inkscape:connector-curvature="0" />
    </marker>
    <marker
       inkscape:isstock="true"
       style="overflow:visible"
       id="Arrow1Lend-1"
       refX="0"
       refY="0"
       orient="auto"
       inkscape:stockid="Arrow1Lend">
      <path
         transform="matrix(-0.8,0,0,-0.8,-10,0)"
         style="fill:#000000;fill-opacity:1;fill-rule:evenodd;stroke:#000000;stroke-width:1pt;stroke-opacity:1"
         d="M 0,0 5,-5 -12.5,0 5,5 0,0 Z"
         id="path4776-28"
         inkscape:connector-curvature="0" />
    </marker>
    <marker
       inkscape:isstock="true"
       style="overflow:visible"
       id="Arrow1Lend-3"
       refX="0"
       refY="0"
       orient="auto"
       inkscape:stockid="Arrow1Lend">
      <path
         transform="matrix(-0.8,0,0,-0.8,-10,0)"
         style="fill:#000000;fill-opacity:1;fill-rule:evenodd;stroke:#000000;stroke-width:1pt;stroke-opacity:1"
         d="M 0,0 5,-5 -12.5,0 5,5 0,0 Z"
         id="path4776-6"
         inkscape:connector-curvature="0" />
    </marker>
    <marker
       inkscape:isstock="true"
       style="overflow:visible"
       id="Arrow1Lend-0"
       refX="0"
       refY="0"
       orient="auto"
       inkscape:stockid="Arrow1Lend">
      <path
         transform="matrix(-0.8,0,0,-0.8,-10,0)"
         style="fill:#000000;fill-opacity:1;fill-rule:evenodd;stroke:#000000;stroke-width:1pt;stroke-opacity:1"
         d="M 0,0 5,-5 -12.5,0 5,5 0,0 Z"
         id="path4776-21"
         inkscape:connector-curvature="0" />
    </marker>
    <marker
       inkscape:isstock="true"
       style="overflow:visible"
       id="Arrow1Lend-51"
       refX="0"
       refY="0"
       orient="auto"
       inkscape:stockid="Arrow1Lend">
      <path
         transform="matrix(-0.8,0,0,-0.8,-10,0)"
         style="fill:#000000;fill-opacity:1;fill-rule:evenodd;stroke:#000000;stroke-width:1pt;stroke-opacity:1"
         d="M 0,0 5,-5 -12.5,0 5,5 0,0 Z"
         id="path4776-1"
         inkscape:connector-curvature="0" />
    </marker>
    <marker
       inkscape:isstock="true"
       style="overflow:visible"
       id="Arrow1Lend-8"
       refX="0"
       refY="0"
       orient="auto"
       inkscape:stockid="Arrow1Lend">
      <path
         transform="matrix(-0.8,0,0,-0.8,-10,0)"
         style="fill:#000000;fill-opacity:1;fill-rule:evenodd;stroke:#000000;stroke-width:1pt;stroke-opacity:1"
         d="M 0,0 5,-5 -12.5,0 5,5 0,0 Z"
         id="path4776-5"
         inkscape:connector-curvature="0" />
    </marker>
    <marker
       inkscape:isstock="true"
       style="overflow:visible"
       id="Arrow1Lend-6"
       refX="0"
       refY="0"
       orient="auto"
       inkscape:stockid="Arrow1Lend">
      <path
         transform="matrix(-0.8,0,0,-0.8,-10,0)"
         style="fill:#000000;fill-opacity:1;fill-rule:evenodd;stroke:#000000;stroke-width:1pt;stroke-opacity:1"
         d="M 0,0 5,-5 -12.5,0 5,5 0,0 Z"
         id="path4776-46"
         inkscape:connector-curvature="0" />
    </marker>
    <marker
       inkscape:isstock="true"
       style="overflow:visible"
       id="Arrow1Lend-58"
       refX="0"
       refY="0"
       orient="auto"
       inkscape:stockid="Arrow1Lend">
      <path
         transform="matrix(-0.8,0,0,-0.8,-10,0)"
         style="fill:#000000;fill-opacity:1;fill-rule:evenodd;stroke:#000000;stroke-width:1pt;stroke-opacity:1"
         d="M 0,0 5,-5 -12.5,0 5,5 0,0 Z"
         id="path4776-62"
         inkscape:connector-curvature="0" />
    </marker>
  </defs>
  <metadata
     id="metadata7">
    <rdf:RDF>
      <cc:Work
         rdf:about="">
        <dc:format>image/svg+xml</dc:format>
        <dc:type
           rdf:resource="http://purl.org/dc/dcmitype/StillImage" />
        <dc:title></dc:title>
      </cc:Work>
    </rdf:RDF>
  </metadata>
  <g
     inkscape:label="Layer 1"
     inkscape:groupmode="layer"
     id="layer1">
    <g
       id="g15051"
       transform="translate(12.752044,-19.128066)">
      <g
         id="g12013"
         transform="translate(-119.79124,-72.559264)">
        <g
           id="g3937">
          <g
             id="g3875"
             transform="translate(-412.76637,-193.71954)">
            <ellipse
               style="fill:#0099ff;stroke:none;stroke-width:4;stroke-miterlimit:4;stroke-dasharray:none"
               id="path3526-4-9"
               cx="537.34924"
               cy="695.04205"
               rx="88.98777"
               ry="56.815273" />
            <g
               transform="translate(191.1965,352.29086)"
               id="g3356">
              <g
                 style="font-style:normal;font-variant:normal;font-weight:normal;font-stretch:normal;letter-spacing:normal;word-spacing:normal;text-anchor:start;fill:none;fill-opacity:1;fill-rule:evenodd;stroke:#000000;stroke-linecap:butt;stroke-linejoin:miter;stroke-miterlimit:10.43299961;stroke-dasharray:none;stroke-dashoffset:0;stroke-opacity:1"
                 id="content"
                 transform="matrix(1.0629921,0,0,-1.0629921,-186.02362,789.27165)"
                 xml:space="preserve"
                 stroke-miterlimit="10.433"
                 font-style="normal"
                 font-variant="normal"
                 font-weight="normal"
                 font-stretch="normal"
                 font-size-adjust="none"
                 letter-spacing="normal"
                 word-spacing="normal"><path
                   style="fill:#000000;stroke-width:0"
                   inkscape:connector-curvature="0"
                   d="m 478.81,423.79 0.45,0.09 0.44,0.11 0.43,0.12 0.43,0.13 0.41,0.15 0.4,0.15 0.39,0.17 0.38,0.18 0.37,0.19 0.36,0.19 0.35,0.21 0.33,0.22 0.32,0.23 0.31,0.24 0.3,0.24 0.28,0.26 0.27,0.26 0.25,0.27 0.24,0.28 0.22,0.28 0.21,0.29 0.19,0.3 0.17,0.3 0.16,0.31 0.14,0.32 0.12,0.32 0.11,0.32 0.08,0.33 0.07,0.33 0.05,0.34 0.03,0.34 0.01,0.35 c 0,4.33 -4.58,8.41 -11.06,8.41 l -0.34,-1.54 c 4.83,0 6.57,-4.24 6.57,-6.87 0,-3.2 -2.44,-7.38 -7.97,-7.38 l -7.22,0 0,-1.09 9.36,0 c 4.94,0 7.03,-4.64 7.03,-7.98 0,-3.53 -2.59,-7.62 -7.72,-7.62 l 0,0 -6.23,0 c -2.34,0 -2.44,0.35 -2.44,2 l 0,13.6 0,1.09 0,12.25 c 0,1.65 0.1,2 2.44,2 l 6.18,0 0.34,1.54 -18.23,0 0,-1.54 1.2,0 c 3.83,0 3.94,-0.55 3.94,-2.34 l 0,-26.25 c 0,-1.8 -0.11,-2.35 -3.94,-2.35 l -1.2,0 0,-1.54 19.53,0 c 6.63,0 11.11,4.43 11.11,9.12 0,4.33 -4.09,8.06 -9.62,8.67 z"
                   id="path3359" /><path
                   style="fill:#000000;stroke-width:0"
                   inkscape:connector-curvature="0"
                   d="m 493.79,423.04 0.02,-0.96 0.07,-0.95 0.12,-0.92 0.15,-0.91 0.2,-0.89 0.24,-0.88 0.29,-0.85 0.31,-0.83 0.36,-0.8 0.39,-0.79 0.43,-0.76 0.46,-0.73 0.49,-0.71 0.53,-0.68 0.55,-0.65 0.58,-0.63 0.61,-0.59 0.64,-0.56 0.66,-0.53 0.68,-0.5 0.7,-0.46 0.73,-0.43 0.74,-0.39 0.77,-0.35 0.78,-0.32 0.79,-0.28 0.82,-0.24 0.82,-0.19 0.84,-0.16 0.84,-0.11 0.86,-0.07 0.86,-0.02 c 8.12,0 13,6.93 13,12.71 0,0.5 0,0.84 -0.64,0.84 -0.55,0 -0.55,-0.29 -0.6,-0.79 -0.4,-7.13 -5.73,-11.21 -11.16,-11.21 -3.04,0 -12.8,1.69 -12.8,16.53 0,14.9 9.71,16.59 12.75,16.59 5.43,0 9.86,-4.53 10.86,-11.8 0.1,-0.7 0.1,-0.85 0.8,-0.85 0.79,0 0.79,0.15 0.79,1.2 l 0,11.8 c 0,0.85 0,1.2 -0.54,1.2 -0.2,0 -0.4,0 -0.8,-0.6 l -2.49,-3.68 c -1.84,1.79 -4.38,4.28 -9.17,4.28 -9.31,0 -17.33,-7.92 -17.33,-18.08 z"
                   id="path3361" /><path
                   style="fill:#000000;stroke-width:0"
                   inkscape:connector-curvature="0"
                   d="m 538.68,421.18 0,0.04 0,0.04 0,0.04 0,0.04 0,0.04 0,0.04 0,0.03 0,0.04 -0.01,0.03 0,0.03 0,0.04 0,0.03 -0.01,0.02 0,0.03 0,0.03 -0.01,0.03 0,0.02 0,0.02 -0.02,0.05 -0.01,0.04 -0.01,0.04 -0.02,0.03 -0.02,0.03 -0.02,0.03 -0.03,0.03 -0.02,0.02 -0.03,0.02 -0.04,0.02 -0.03,0.01 -0.04,0.01 -0.05,0.02 -0.05,0 -0.02,0.01 -0.03,0 -0.03,0.01 -0.02,0 -0.03,0 -0.03,0 -0.04,0 -0.03,0.01 -0.03,0 -0.04,0 -0.03,0 -0.04,0 -0.04,0 -0.04,0 -0.04,0 -0.04,0 -0.05,0 -0.04,0 c -2.24,-2.19 -5.41,-2.23 -6.84,-2.23 l 0,-1.25 c 0.84,0 3.14,0 5.05,0.97 l 0,-17.78 c 0,-1.15 0,-1.61 -3.48,-1.61 l -1.33,0 0,-1.25 12.45,0 0,1.25 -1.32,0 c -3.49,0 -3.49,0.46 -3.49,1.61 z"
                   id="path3363" /></g>            </g>
          </g>
          <g
             id="g3906"
             transform="translate(-331.99288,-76.894594)">
            <rect
               style="fill:#ff0000;stroke:none;stroke-width:4;stroke-miterlimit:4;stroke-dasharray:none"
               id="rect3336-5-0-4"
               width="159.49348"
               height="106.10081"
               x="376.82901"
               y="681.69391" />
            <g
               id="g3385"
               transform="translate(109.43974,391.99312)">
              <g
                 word-spacing="normal"
                 letter-spacing="normal"
                 font-size-adjust="none"
                 font-stretch="normal"
                 font-weight="normal"
                 font-variant="normal"
                 font-style="normal"
                 stroke-miterlimit="10.433"
                 xml:space="preserve"
                 transform="matrix(1.0629921,0,0,-1.0629921,-186.02362,789.27165)"
                 id="g3387"
                 style="font-style:normal;font-variant:normal;font-weight:normal;font-stretch:normal;letter-spacing:normal;word-spacing:normal;text-anchor:start;fill:none;fill-opacity:1;fill-rule:evenodd;stroke:#000000;stroke-linecap:butt;stroke-linejoin:miter;stroke-miterlimit:10.43299961;stroke-dasharray:none;stroke-dashoffset:0;stroke-opacity:1"><path
                   id="path3389"
                   d="m 467.56,439.38 -0.04,0.05 -0.04,0.05 -0.04,0.05 -0.03,0.04 -0.04,0.05 -0.03,0.04 -0.03,0.03 -0.03,0.04 -0.03,0.03 -0.04,0.03 -0.03,0.03 -0.03,0.02 -0.03,0.03 -0.03,0.02 -0.03,0.02 -0.04,0.01 -0.03,0.02 -0.04,0.01 -0.04,0.01 -0.04,0.02 -0.05,0.01 -0.04,0 -0.05,0.01 -0.06,0.01 -0.05,0 -0.06,0 -0.06,0.01 -0.07,0 -0.07,0 -0.04,0 -0.04,0 -0.04,0 -0.04,0 -0.04,0 -0.05,0 -8.47,0 0,-1.54 1.45,0 c 0.75,0 1.74,-0.05 2.49,-0.1 1.15,-0.15 1.19,-0.2 1.19,-1.15 l 0,-26 c 0,-1.34 0,-3.69 -5.13,-3.69 l 0,-1.54 11.66,0 0,1.54 c -5.13,0 -5.13,2.35 -5.13,3.69 l 0,25.9 c 0.25,-0.25 0.3,-0.29 0.5,-0.59 l 20.32,-29.89 c 0.45,-0.6 0.5,-0.65 0.85,-0.65 0.7,0 0.7,0.35 0.7,1.3 l 0,27.49 c 0,1.35 0,3.69 5.13,3.69 l 0,1.54 -11.66,0 0,-1.54 c 5.13,0 5.13,-2.34 5.13,-3.69 l 0,-21.27 z"
                   inkscape:connector-curvature="0"
                   style="fill:#000000;stroke-width:0" /><path
                   id="path3391"
                   d="m 495.79,423.04 0.02,-0.96 0.07,-0.95 0.12,-0.92 0.15,-0.91 0.2,-0.89 0.24,-0.88 0.29,-0.85 0.31,-0.83 0.36,-0.8 0.39,-0.79 0.43,-0.76 0.46,-0.73 0.49,-0.71 0.53,-0.68 0.55,-0.65 0.58,-0.63 0.61,-0.59 0.64,-0.56 0.66,-0.53 0.68,-0.5 0.7,-0.46 0.73,-0.43 0.74,-0.39 0.77,-0.35 0.78,-0.32 0.79,-0.28 0.82,-0.24 0.82,-0.19 0.84,-0.16 0.84,-0.11 0.86,-0.07 0.86,-0.02 c 8.12,0 13,6.93 13,12.71 0,0.5 0,0.84 -0.64,0.84 -0.55,0 -0.55,-0.29 -0.6,-0.79 -0.4,-7.13 -5.73,-11.21 -11.16,-11.21 -3.04,0 -12.8,1.69 -12.8,16.53 0,14.9 9.71,16.59 12.75,16.59 5.43,0 9.86,-4.53 10.86,-11.8 0.1,-0.7 0.1,-0.85 0.8,-0.85 0.79,0 0.79,0.15 0.79,1.2 l 0,11.8 c 0,0.85 0,1.2 -0.54,1.2 -0.2,0 -0.4,0 -0.8,-0.6 l -2.49,-3.68 c -1.84,1.79 -4.38,4.28 -9.17,4.28 -9.31,0 -17.33,-7.92 -17.33,-18.08 z"
                   inkscape:connector-curvature="0"
                   style="fill:#000000;stroke-width:0" /><path
                   id="path3393"
                   d="m 540.68,421.18 0,0.04 0,0.04 0,0.04 0,0.04 0,0.04 0,0.04 0,0.03 0,0.04 -0.01,0.03 0,0.03 0,0.04 0,0.03 -0.01,0.02 0,0.03 0,0.03 -0.01,0.03 0,0.02 0,0.02 -0.02,0.05 -0.01,0.04 -0.01,0.04 -0.02,0.03 -0.02,0.03 -0.02,0.03 -0.03,0.03 -0.02,0.02 -0.03,0.02 -0.04,0.02 -0.03,0.01 -0.04,0.01 -0.05,0.02 -0.05,0 -0.02,0.01 -0.03,0 -0.03,0.01 -0.02,0 -0.03,0 -0.03,0 -0.04,0 -0.03,0.01 -0.03,0 -0.04,0 -0.03,0 -0.04,0 -0.04,0 -0.04,0 -0.04,0 -0.04,0 -0.05,0 -0.04,0 c -2.24,-2.19 -5.41,-2.23 -6.84,-2.23 l 0,-1.25 c 0.84,0 3.14,0 5.05,0.97 l 0,-17.78 c 0,-1.15 0,-1.61 -3.48,-1.61 l -1.33,0 0,-1.25 12.45,0 0,1.25 -1.32,0 c -3.49,0 -3.49,0.46 -3.49,1.61 z"
                   inkscape:connector-curvature="0"
                   style="fill:#000000;stroke-width:0" /></g>            </g>
          </g>
          <g
             id="g3929"
             transform="translate(-336.1,261.48716)">
            <rect
               style="fill:#ff0000;stroke:none;stroke-width:4;stroke-miterlimit:4;stroke-dasharray:none"
               id="rect3336-5-0-6"
               width="159.49348"
               height="106.10081"
               x="380.93613"
               y="656.36658" />
            <g
               transform="translate(112.95158,366.66579)"
               id="g3425">
              <g
                 style="font-style:normal;font-variant:normal;font-weight:normal;font-stretch:normal;letter-spacing:normal;word-spacing:normal;text-anchor:start;fill:none;fill-opacity:1;fill-rule:evenodd;stroke:#000000;stroke-linecap:butt;stroke-linejoin:miter;stroke-miterlimit:10.43299961;stroke-dasharray:none;stroke-dashoffset:0;stroke-opacity:1"
                 id="g3427"
                 transform="matrix(1.0629921,0,0,-1.0629921,-186.02362,789.27165)"
                 xml:space="preserve"
                 stroke-miterlimit="10.433"
                 font-style="normal"
                 font-variant="normal"
                 font-weight="normal"
                 font-stretch="normal"
                 font-size-adjust="none"
                 letter-spacing="normal"
                 word-spacing="normal"><path
                   style="fill:#000000;stroke-width:0"
                   inkscape:connector-curvature="0"
                   d="m 467.56,439.38 -0.04,0.05 -0.04,0.05 -0.04,0.05 -0.03,0.04 -0.04,0.05 -0.03,0.04 -0.03,0.03 -0.03,0.04 -0.03,0.03 -0.04,0.03 -0.03,0.03 -0.03,0.02 -0.03,0.03 -0.03,0.02 -0.03,0.02 -0.04,0.01 -0.03,0.02 -0.04,0.01 -0.04,0.01 -0.04,0.02 -0.05,0.01 -0.04,0 -0.05,0.01 -0.06,0.01 -0.05,0 -0.06,0 -0.06,0.01 -0.07,0 -0.07,0 -0.04,0 -0.04,0 -0.04,0 -0.04,0 -0.04,0 -0.05,0 -8.47,0 0,-1.54 1.45,0 c 0.75,0 1.74,-0.05 2.49,-0.1 1.15,-0.15 1.19,-0.2 1.19,-1.15 l 0,-26 c 0,-1.34 0,-3.69 -5.13,-3.69 l 0,-1.54 11.66,0 0,1.54 c -5.13,0 -5.13,2.35 -5.13,3.69 l 0,25.9 c 0.25,-0.25 0.3,-0.29 0.5,-0.59 l 20.32,-29.89 c 0.45,-0.6 0.5,-0.65 0.85,-0.65 0.7,0 0.7,0.35 0.7,1.3 l 0,27.49 c 0,1.35 0,3.69 5.13,3.69 l 0,1.54 -11.66,0 0,-1.54 c 5.13,0 5.13,-2.34 5.13,-3.69 l 0,-21.27 z"
                   id="path3429" /><path
                   style="fill:#000000;stroke-width:0"
                   inkscape:connector-curvature="0"
                   d="m 495.79,423.04 0.02,-0.96 0.07,-0.95 0.12,-0.92 0.15,-0.91 0.2,-0.89 0.24,-0.88 0.29,-0.85 0.31,-0.83 0.36,-0.8 0.39,-0.79 0.43,-0.76 0.46,-0.73 0.49,-0.71 0.53,-0.68 0.55,-0.65 0.58,-0.63 0.61,-0.59 0.64,-0.56 0.66,-0.53 0.68,-0.5 0.7,-0.46 0.73,-0.43 0.74,-0.39 0.77,-0.35 0.78,-0.32 0.79,-0.28 0.82,-0.24 0.82,-0.19 0.84,-0.16 0.84,-0.11 0.86,-0.07 0.86,-0.02 c 8.12,0 13,6.93 13,12.71 0,0.5 0,0.84 -0.64,0.84 -0.55,0 -0.55,-0.29 -0.6,-0.79 -0.4,-7.13 -5.73,-11.21 -11.16,-11.21 -3.04,0 -12.8,1.69 -12.8,16.53 0,14.9 9.71,16.59 12.75,16.59 5.43,0 9.86,-4.53 10.86,-11.8 0.1,-0.7 0.1,-0.85 0.8,-0.85 0.79,0 0.79,0.15 0.79,1.2 l 0,11.8 c 0,0.85 0,1.2 -0.54,1.2 -0.2,0 -0.4,0 -0.8,-0.6 l -2.49,-3.68 c -1.84,1.79 -4.38,4.28 -9.17,4.28 -9.31,0 -17.33,-7.92 -17.33,-18.08 z"
                   id="path3431" /><path
                   style="fill:#000000;stroke-width:0"
                   inkscape:connector-curvature="0"
                   d="m 546.61,405.35 -1.19,0 c -0.1,-0.77 -0.45,-2.83 -0.9,-3.18 -0.28,-0.21 -2.97,-0.21 -3.45,-0.21 l -6.42,0 c 3.66,3.25 4.88,4.22 6.97,5.86 2.58,2.06 4.99,4.22 4.99,7.54 0,4.21 -3.7,6.79 -8.16,6.79 -4.33,0 -7.25,-3.03 -7.25,-6.24 0,-1.78 1.5,-1.95 1.84,-1.95 0.84,0 1.86,0.59 1.86,1.85 0,0.62 -0.25,1.85 -2.06,1.85 1.08,2.47 3.45,3.24 5.09,3.24 3.48,0 5.3,-2.72 5.3,-5.54 0,-3.04 -2.16,-5.45 -3.28,-6.7 l -8.4,-8.3 c -0.35,-0.31 -0.35,-0.38 -0.35,-1.36 l 14.36,0 z"
                   id="path3433" /></g>            </g>
          </g>
          <g
             id="g3883"
             transform="translate(-47.916505,321.26869)">
            <ellipse
               style="fill:#0099ff;stroke:none;stroke-width:4;stroke-miterlimit:4;stroke-dasharray:none"
               id="path3526-4-5"
               cx="172.49937"
               cy="493.10825"
               rx="88.98777"
               ry="56.815273" />
            <g
               id="g3491"
               transform="translate(-174.24865,150.35706)">
              <g
                 word-spacing="normal"
                 letter-spacing="normal"
                 font-size-adjust="none"
                 font-stretch="normal"
                 font-weight="normal"
                 font-variant="normal"
                 font-style="normal"
                 stroke-miterlimit="10.433"
                 xml:space="preserve"
                 transform="matrix(1.0629921,0,0,-1.0629921,-186.02362,789.27165)"
                 id="g3493"
                 style="font-style:normal;font-variant:normal;font-weight:normal;font-stretch:normal;letter-spacing:normal;word-spacing:normal;text-anchor:start;fill:none;fill-opacity:1;fill-rule:evenodd;stroke:#000000;stroke-linecap:butt;stroke-linejoin:miter;stroke-miterlimit:10.43299961;stroke-dasharray:none;stroke-dashoffset:0;stroke-opacity:1"><path
                   id="path3495"
                   d="m 478.81,423.79 0.45,0.09 0.44,0.11 0.43,0.12 0.43,0.13 0.41,0.15 0.4,0.15 0.39,0.17 0.38,0.18 0.37,0.19 0.36,0.19 0.35,0.21 0.33,0.22 0.32,0.23 0.31,0.24 0.3,0.24 0.28,0.26 0.27,0.26 0.25,0.27 0.24,0.28 0.22,0.28 0.21,0.29 0.19,0.3 0.17,0.3 0.16,0.31 0.14,0.32 0.12,0.32 0.11,0.32 0.08,0.33 0.07,0.33 0.05,0.34 0.03,0.34 0.01,0.35 c 0,4.33 -4.58,8.41 -11.06,8.41 l -0.34,-1.54 c 4.83,0 6.57,-4.24 6.57,-6.87 0,-3.2 -2.44,-7.38 -7.97,-7.38 l -7.22,0 0,-1.09 9.36,0 c 4.94,0 7.03,-4.64 7.03,-7.98 0,-3.53 -2.59,-7.62 -7.72,-7.62 l 0,0 -6.23,0 c -2.34,0 -2.44,0.35 -2.44,2 l 0,13.6 0,1.09 0,12.25 c 0,1.65 0.1,2 2.44,2 l 6.18,0 0.34,1.54 -18.23,0 0,-1.54 1.2,0 c 3.83,0 3.94,-0.55 3.94,-2.34 l 0,-26.25 c 0,-1.8 -0.11,-2.35 -3.94,-2.35 l -1.2,0 0,-1.54 19.53,0 c 6.63,0 11.11,4.43 11.11,9.12 0,4.33 -4.09,8.06 -9.62,8.67 z"
                   inkscape:connector-curvature="0"
                   style="fill:#000000;stroke-width:0" /><path
                   id="path3497"
                   d="m 493.79,423.04 0.02,-0.96 0.07,-0.95 0.12,-0.92 0.15,-0.91 0.2,-0.89 0.24,-0.88 0.29,-0.85 0.31,-0.83 0.36,-0.8 0.39,-0.79 0.43,-0.76 0.46,-0.73 0.49,-0.71 0.53,-0.68 0.55,-0.65 0.58,-0.63 0.61,-0.59 0.64,-0.56 0.66,-0.53 0.68,-0.5 0.7,-0.46 0.73,-0.43 0.74,-0.39 0.77,-0.35 0.78,-0.32 0.79,-0.28 0.82,-0.24 0.82,-0.19 0.84,-0.16 0.84,-0.11 0.86,-0.07 0.86,-0.02 c 8.12,0 13,6.93 13,12.71 0,0.5 0,0.84 -0.64,0.84 -0.55,0 -0.55,-0.29 -0.6,-0.79 -0.4,-7.13 -5.73,-11.21 -11.16,-11.21 -3.04,0 -12.8,1.69 -12.8,16.53 0,14.9 9.71,16.59 12.75,16.59 5.43,0 9.86,-4.53 10.86,-11.8 0.1,-0.7 0.1,-0.85 0.8,-0.85 0.79,0 0.79,0.15 0.79,1.2 l 0,11.8 c 0,0.85 0,1.2 -0.54,1.2 -0.2,0 -0.4,0 -0.8,-0.6 l -2.49,-3.68 c -1.84,1.79 -4.38,4.28 -9.17,4.28 -9.31,0 -17.33,-7.92 -17.33,-18.08 z"
                   inkscape:connector-curvature="0"
                   style="fill:#000000;stroke-width:0" /><path
                   id="path3499"
                   d="m 544.61,405.35 -1.19,0 c -0.1,-0.77 -0.45,-2.83 -0.9,-3.18 -0.28,-0.21 -2.97,-0.21 -3.45,-0.21 l -6.42,0 c 3.66,3.25 4.88,4.22 6.97,5.86 2.58,2.06 4.99,4.22 4.99,7.54 0,4.21 -3.7,6.79 -8.16,6.79 -4.33,0 -7.25,-3.03 -7.25,-6.24 0,-1.78 1.5,-1.95 1.84,-1.95 0.84,0 1.86,0.59 1.86,1.85 0,0.62 -0.25,1.85 -2.06,1.85 1.08,2.47 3.45,3.24 5.09,3.24 3.48,0 5.3,-2.72 5.3,-5.54 0,-3.04 -2.16,-5.45 -3.28,-6.7 l -8.4,-8.3 c -0.35,-0.31 -0.35,-0.38 -0.35,-1.36 l 14.36,0 z"
                   inkscape:connector-curvature="0"
                   style="fill:#000000;stroke-width:0" /></g>            </g>
          </g>
        </g>
        <path
           sodipodi:nodetypes="csc"
           inkscape:connector-curvature="0"
           id="path3967"
           d="m 203.98737,666.29214 c 0,0 103.71872,-88.70817 23.27372,-143.74949 l -13.0059,-8.89878"
           style="fill:none;fill-rule:evenodd;stroke:#000000;stroke-width:2;stroke-linecap:butt;stroke-linejoin:miter;stroke-miterlimit:4;stroke-dasharray:8, 8;stroke-dashoffset:0;stroke-opacity:1;marker-end:url(#Arrow1Lend)" />
        <path
           sodipodi:nodetypes="csc"
           inkscape:connector-curvature="0"
           id="path9661"
           d="m 205.35641,625.90537 c 0,0 52.61376,-49.35636 3.42261,-86.24969 l -8.21426,-6.16069"
           style="color:#000000;clip-rule:nonzero;display:inline;overflow:visible;visibility:visible;opacity:1;isolation:auto;mix-blend-mode:normal;color-interpolation:sRGB;color-interpolation-filters:linearRGB;solid-color:#000000;solid-opacity:1;fill:none;fill-opacity:1;fill-rule:evenodd;stroke:#000000;stroke-width:2;stroke-linecap:butt;stroke-linejoin:miter;stroke-miterlimit:4;stroke-dasharray:8, 8;stroke-dashoffset:0;stroke-opacity:1;marker-end:url(#marker9827);color-rendering:auto;image-rendering:auto;shape-rendering:auto;text-rendering:auto;enable-background:accumulate" />
        <path
           sodipodi:nodetypes="csc"
           inkscape:connector-curvature="0"
           id="path10715"
           d="m 204.67189,686.82777 c 0,0 118.90135,101.16117 31.48798,221.10041 l -29.43442,40.38675"
           style="color:#000000;clip-rule:nonzero;display:inline;overflow:visible;visibility:visible;opacity:1;isolation:auto;mix-blend-mode:normal;color-interpolation:sRGB;color-interpolation-filters:linearRGB;solid-color:#000000;solid-opacity:1;fill:none;fill-opacity:1;fill-rule:evenodd;stroke:#000000;stroke-width:2;stroke-linecap:butt;stroke-linejoin:miter;stroke-miterlimit:4;stroke-dasharray:8, 8;stroke-dashoffset:0;stroke-opacity:1;marker-end:url(#marker10792);color-rendering:auto;image-rendering:auto;shape-rendering:auto;text-rendering:auto;enable-background:accumulate" />
        <path
           sodipodi:nodetypes="csc"
           inkscape:connector-curvature="0"
           id="path11083"
           d="m 43.124846,977.06483 c 0,0 -66.786566,-192.74113 -32.857025,-295.02871 L 56.815273,541.70925"
           style="color:#000000;clip-rule:nonzero;display:inline;overflow:visible;visibility:visible;opacity:1;isolation:auto;mix-blend-mode:normal;color-interpolation:sRGB;color-interpolation-filters:linearRGB;solid-color:#000000;solid-opacity:1;fill:none;fill-opacity:1;fill-rule:evenodd;stroke:#000000;stroke-width:2;stroke-linecap:butt;stroke-linejoin:miter;stroke-miterlimit:4;stroke-dasharray:8, 8;stroke-dashoffset:0;stroke-opacity:1;marker-end:url(#marker11178);color-rendering:auto;image-rendering:auto;shape-rendering:auto;text-rendering:auto;enable-background:accumulate" />
        <path
           sodipodi:nodetypes="cc"
           inkscape:connector-curvature="0"
           id="path11542"
           d="m 119.79124,916.82695 1.36904,-43.80937"
           style="color:#000000;clip-rule:nonzero;display:inline;overflow:visible;visibility:visible;opacity:1;isolation:auto;mix-blend-mode:normal;color-interpolation:sRGB;color-interpolation-filters:linearRGB;solid-color:#000000;solid-opacity:1;fill:none;fill-opacity:1;fill-rule:evenodd;stroke:#000000;stroke-width:2;stroke-linecap:butt;stroke-linejoin:miter;stroke-miterlimit:4;stroke-dasharray:8, 8;stroke-dashoffset:0;stroke-opacity:1;marker-end:url(#marker11649);color-rendering:auto;image-rendering:auto;shape-rendering:auto;text-rendering:auto;enable-background:accumulate" />
      </g>
      <g
         id="g13766"
         transform="translate(83.596735,77.92916)">
        <g
           id="g13350">
          <g
             transform="translate(423.0342,131.42811)"
             id="g12259">
            <rect
               style="fill:#ff0000;stroke:none;stroke-width:4;stroke-miterlimit:4;stroke-dasharray:none"
               id="rect3336-5-0"
               width="159.49348"
               height="106.10081"
               x="136.56201"
               y="216.21938" />
            <g
               id="g12143"
               transform="translate(-157.41269,-79.157787)">
              <g
                 word-spacing="normal"
                 letter-spacing="normal"
                 font-size-adjust="none"
                 font-stretch="normal"
                 font-weight="normal"
                 font-variant="normal"
                 font-style="normal"
                 stroke-miterlimit="10.433"
                 xml:space="preserve"
                 transform="matrix(1.0629921,0,0,-1.0629921,-186.02362,789.27165)"
                 id="g12145"
                 style="font-style:normal;font-variant:normal;font-weight:normal;font-stretch:normal;letter-spacing:normal;word-spacing:normal;text-anchor:start;fill:none;fill-opacity:1;fill-rule:evenodd;stroke:#000000;stroke-linecap:butt;stroke-linejoin:miter;stroke-miterlimit:10.43299961;stroke-dasharray:none;stroke-dashoffset:0;stroke-opacity:1"><path
                   id="path12147"
                   d="m 467.56,439.38 -0.04,0.05 -0.04,0.05 -0.04,0.05 -0.03,0.04 -0.04,0.05 -0.03,0.04 -0.03,0.03 -0.03,0.04 -0.03,0.03 -0.04,0.03 -0.03,0.03 -0.03,0.02 -0.03,0.03 -0.03,0.02 -0.03,0.02 -0.04,0.01 -0.03,0.02 -0.04,0.01 -0.04,0.01 -0.04,0.02 -0.05,0.01 -0.04,0 -0.05,0.01 -0.06,0.01 -0.05,0 -0.06,0 -0.06,0.01 -0.07,0 -0.07,0 -0.04,0 -0.04,0 -0.04,0 -0.04,0 -0.04,0 -0.05,0 -8.47,0 0,-1.54 1.45,0 c 0.75,0 1.74,-0.05 2.49,-0.1 1.15,-0.15 1.19,-0.2 1.19,-1.15 l 0,-26 c 0,-1.34 0,-3.69 -5.13,-3.69 l 0,-1.54 11.66,0 0,1.54 c -5.13,0 -5.13,2.35 -5.13,3.69 l 0,25.9 c 0.25,-0.25 0.3,-0.29 0.5,-0.59 l 20.32,-29.89 c 0.45,-0.6 0.5,-0.65 0.85,-0.65 0.7,0 0.7,0.35 0.7,1.3 l 0,27.49 c 0,1.35 0,3.69 5.13,3.69 l 0,1.54 -11.66,0 0,-1.54 c 5.13,0 5.13,-2.34 5.13,-3.69 l 0,-21.27 z"
                   inkscape:connector-curvature="0"
                   style="fill:#000000;stroke-width:0" /><path
                   id="path12149"
                   d="m 495.79,423.04 0.02,-0.96 0.07,-0.95 0.12,-0.92 0.15,-0.91 0.2,-0.89 0.24,-0.88 0.29,-0.85 0.31,-0.83 0.36,-0.8 0.39,-0.79 0.43,-0.76 0.46,-0.73 0.49,-0.71 0.53,-0.68 0.55,-0.65 0.58,-0.63 0.61,-0.59 0.64,-0.56 0.66,-0.53 0.68,-0.5 0.7,-0.46 0.73,-0.43 0.74,-0.39 0.77,-0.35 0.78,-0.32 0.79,-0.28 0.82,-0.24 0.82,-0.19 0.84,-0.16 0.84,-0.11 0.86,-0.07 0.86,-0.02 c 8.12,0 13,6.93 13,12.71 0,0.5 0,0.84 -0.64,0.84 -0.55,0 -0.55,-0.29 -0.6,-0.79 -0.4,-7.13 -5.73,-11.21 -11.16,-11.21 -3.04,0 -12.8,1.69 -12.8,16.53 0,14.9 9.71,16.59 12.75,16.59 5.43,0 9.86,-4.53 10.86,-11.8 0.1,-0.7 0.1,-0.85 0.8,-0.85 0.79,0 0.79,0.15 0.79,1.2 l 0,11.8 c 0,0.85 0,1.2 -0.54,1.2 -0.2,0 -0.4,0 -0.8,-0.6 l -2.49,-3.68 c -1.84,1.79 -4.38,4.28 -9.17,4.28 -9.31,0 -17.33,-7.92 -17.33,-18.08 z"
                   inkscape:connector-curvature="0"
                   style="fill:#000000;stroke-width:0" /><path
                   id="path12151"
                   d="m 540.68,419.18 0,0.04 0,0.04 0,0.04 0,0.04 0,0.04 0,0.04 0,0.03 0,0.04 -0.01,0.03 0,0.03 0,0.04 0,0.03 -0.01,0.02 0,0.03 0,0.03 -0.01,0.03 0,0.02 0,0.02 -0.02,0.05 -0.01,0.04 -0.01,0.04 -0.02,0.03 -0.02,0.03 -0.02,0.03 -0.03,0.03 -0.02,0.02 -0.03,0.02 -0.04,0.02 -0.03,0.01 -0.04,0.01 -0.05,0.02 -0.05,0 -0.02,0.01 -0.03,0 -0.03,0.01 -0.02,0 -0.03,0 -0.03,0 -0.04,0 -0.03,0.01 -0.03,0 -0.04,0 -0.03,0 -0.04,0 -0.04,0 -0.04,0 -0.04,0 -0.04,0 -0.05,0 -0.04,0 c -2.24,-2.19 -5.41,-2.23 -6.84,-2.23 l 0,-1.25 c 0.84,0 3.14,0 5.05,0.97 l 0,-17.78 c 0,-1.15 0,-1.61 -3.48,-1.61 l -1.33,0 0,-1.25 12.45,0 0,1.25 -1.32,0 c -3.49,0 -3.49,0.46 -3.49,1.61 z"
                   inkscape:connector-curvature="0"
                   style="fill:#000000;stroke-width:0" /><path
                   id="path12153"
                   d="m 561.38,423.15 -0.61,-0.44 -0.58,-0.46 -0.55,-0.48 -0.52,-0.49 -0.5,-0.5 -0.47,-0.51 -0.45,-0.52 -0.42,-0.54 -0.4,-0.54 -0.38,-0.55 -0.35,-0.56 -0.33,-0.56 -0.31,-0.57 -0.29,-0.57 -0.26,-0.58 -0.25,-0.58 -0.23,-0.58 -0.2,-0.58 -0.19,-0.59 -0.18,-0.58 -0.15,-0.58 -0.14,-0.58 -0.12,-0.57 -0.11,-0.58 -0.1,-0.56 -0.07,-0.56 -0.07,-0.55 -0.05,-0.55 -0.04,-0.54 -0.03,-0.52 -0.01,-0.52 -0.01,-0.51 c 0,-4.91 1.46,-12.55 8.37,-17.43 0.28,0 0.69,0 0.69,0.41 0,0.22 -0.1,0.29 -0.34,0.53 -4.64,4.18 -6.35,10.11 -6.35,16.46 0,9.41 3.59,14.01 6.45,16.6 0.14,0.13 0.24,0.24 0.24,0.41 0,0.42 -0.41,0.42 -0.69,0.42 z"
                   inkscape:connector-curvature="0"
                   style="fill:#000000;stroke-width:0" /><path
                   id="path12155"
                   d="m 575.68,419.18 0,0.04 0,0.04 0,0.04 0,0.04 0,0.04 0,0.04 0,0.03 0,0.04 -0.01,0.03 0,0.03 0,0.04 0,0.03 -0.01,0.02 0,0.03 0,0.03 -0.01,0.03 0,0.02 0,0.02 -0.02,0.05 -0.01,0.04 -0.01,0.04 -0.02,0.03 -0.02,0.03 -0.02,0.03 -0.03,0.03 -0.02,0.02 -0.03,0.02 -0.04,0.02 -0.03,0.01 -0.04,0.01 -0.05,0.02 -0.05,0 -0.02,0.01 -0.03,0 -0.03,0.01 -0.02,0 -0.03,0 -0.03,0 -0.04,0 -0.03,0.01 -0.03,0 -0.04,0 -0.03,0 -0.04,0 -0.04,0 -0.04,0 -0.04,0 -0.04,0 -0.05,0 -0.04,0 c -2.24,-2.19 -5.41,-2.23 -6.84,-2.23 l 0,-1.25 c 0.84,0 3.14,0 5.05,0.97 l 0,-17.78 c 0,-1.15 0,-1.61 -3.48,-1.61 l -1.33,0 0,-1.25 12.45,0 0,1.25 -1.32,0 c -3.49,0 -3.49,0.46 -3.49,1.61 z"
                   inkscape:connector-curvature="0"
                   style="fill:#000000;stroke-width:0" /><path
                   id="path12157"
                   d="m 587.14,423.15 -0.03,0 -0.02,0 -0.03,0 -0.02,0 -0.03,0 -0.02,0 -0.03,0 -0.03,0 -0.03,-0.01 -0.02,0 -0.03,0 -0.03,-0.01 -0.03,-0.01 -0.02,0 -0.03,-0.01 -0.02,-0.01 -0.03,-0.01 -0.02,-0.01 -0.03,-0.02 -0.02,-0.01 -0.02,-0.02 -0.02,-0.01 -0.02,-0.02 -0.01,-0.01 0,-0.01 -0.01,-0.02 -0.01,-0.01 -0.01,-0.01 0,-0.01 -0.01,-0.02 0,-0.01 -0.01,-0.01 0,-0.02 -0.01,-0.01 0,-0.02 -0.01,-0.02 0,-0.01 0,-0.02 0,-0.02 0,-0.02 0,-0.02 c 0,-0.17 0.1,-0.28 0.31,-0.52 3,-2.75 6.35,-7.46 6.35,-16.46 0,-7.29 -2.27,-12.79 -6.04,-16.21 -0.59,-0.59 -0.62,-0.63 -0.62,-0.81 0,-0.17 0.1,-0.41 0.45,-0.41 0.42,0 3.73,2.3 6.03,6.66 1.54,2.89 2.55,6.66 2.55,10.74 0,4.91 -1.47,12.55 -8.37,17.43 z"
                   inkscape:connector-curvature="0"
                   style="fill:#000000;stroke-width:0" /></g>            </g>
          </g>
          <g
             id="g13166">
            <g
               transform="translate(665.35477,104.73177)"
               id="g3823">
              <rect
                 y="411.99246"
                 x="87.276466"
                 height="106.10081"
                 width="159.49348"
                 id="rect3336-5"
                 style="fill:#ff0000;stroke:none;stroke-width:4;stroke-miterlimit:4;stroke-dasharray:none" />
              <g
                 id="g3720"
                 transform="translate(-206.69824,116.6153)">
                <g
                   word-spacing="normal"
                   letter-spacing="normal"
                   font-size-adjust="none"
                   font-stretch="normal"
                   font-weight="normal"
                   font-variant="normal"
                   font-style="normal"
                   stroke-miterlimit="10.433"
                   xml:space="preserve"
                   transform="matrix(1.0629921,0,0,-1.0629921,-186.02362,789.27165)"
                   id="g3722"
                   style="font-style:normal;font-variant:normal;font-weight:normal;font-stretch:normal;letter-spacing:normal;word-spacing:normal;text-anchor:start;fill:none;fill-opacity:1;fill-rule:evenodd;stroke:#000000;stroke-linecap:butt;stroke-linejoin:miter;stroke-miterlimit:10.43299961;stroke-dasharray:none;stroke-dashoffset:0;stroke-opacity:1"><path
                     id="path3724"
                     d="m 467.56,439.38 -0.04,0.05 -0.04,0.05 -0.04,0.05 -0.03,0.04 -0.04,0.05 -0.03,0.04 -0.03,0.03 -0.03,0.04 -0.03,0.03 -0.04,0.03 -0.03,0.03 -0.03,0.02 -0.03,0.03 -0.03,0.02 -0.03,0.02 -0.04,0.01 -0.03,0.02 -0.04,0.01 -0.04,0.01 -0.04,0.02 -0.05,0.01 -0.04,0 -0.05,0.01 -0.06,0.01 -0.05,0 -0.06,0 -0.06,0.01 -0.07,0 -0.07,0 -0.04,0 -0.04,0 -0.04,0 -0.04,0 -0.04,0 -0.05,0 -8.47,0 0,-1.54 1.45,0 c 0.75,0 1.74,-0.05 2.49,-0.1 1.15,-0.15 1.19,-0.2 1.19,-1.15 l 0,-26 c 0,-1.34 0,-3.69 -5.13,-3.69 l 0,-1.54 11.66,0 0,1.54 c -5.13,0 -5.13,2.35 -5.13,3.69 l 0,25.9 c 0.25,-0.25 0.3,-0.29 0.5,-0.59 l 20.32,-29.89 c 0.45,-0.6 0.5,-0.65 0.85,-0.65 0.7,0 0.7,0.35 0.7,1.3 l 0,27.49 c 0,1.35 0,3.69 5.13,3.69 l 0,1.54 -11.66,0 0,-1.54 c 5.13,0 5.13,-2.34 5.13,-3.69 l 0,-21.27 z"
                     inkscape:connector-curvature="0"
                     style="fill:#000000;stroke-width:0" /><path
                     id="path3726"
                     d="m 495.79,423.04 0.02,-0.96 0.07,-0.95 0.12,-0.92 0.15,-0.91 0.2,-0.89 0.24,-0.88 0.29,-0.85 0.31,-0.83 0.36,-0.8 0.39,-0.79 0.43,-0.76 0.46,-0.73 0.49,-0.71 0.53,-0.68 0.55,-0.65 0.58,-0.63 0.61,-0.59 0.64,-0.56 0.66,-0.53 0.68,-0.5 0.7,-0.46 0.73,-0.43 0.74,-0.39 0.77,-0.35 0.78,-0.32 0.79,-0.28 0.82,-0.24 0.82,-0.19 0.84,-0.16 0.84,-0.11 0.86,-0.07 0.86,-0.02 c 8.12,0 13,6.93 13,12.71 0,0.5 0,0.84 -0.64,0.84 -0.55,0 -0.55,-0.29 -0.6,-0.79 -0.4,-7.13 -5.73,-11.21 -11.16,-11.21 -3.04,0 -12.8,1.69 -12.8,16.53 0,14.9 9.71,16.59 12.75,16.59 5.43,0 9.86,-4.53 10.86,-11.8 0.1,-0.7 0.1,-0.85 0.8,-0.85 0.79,0 0.79,0.15 0.79,1.2 l 0,11.8 c 0,0.85 0,1.2 -0.54,1.2 -0.2,0 -0.4,0 -0.8,-0.6 l -2.49,-3.68 c -1.84,1.79 -4.38,4.28 -9.17,4.28 -9.31,0 -17.33,-7.92 -17.33,-18.08 z"
                     inkscape:connector-curvature="0"
                     style="fill:#000000;stroke-width:0" /><path
                     id="path3728"
                     d="m 546.61,403.35 -1.19,0 c -0.1,-0.77 -0.45,-2.83 -0.9,-3.18 -0.28,-0.21 -2.97,-0.21 -3.45,-0.21 l -6.42,0 c 3.66,3.25 4.88,4.22 6.97,5.86 2.58,2.06 4.99,4.22 4.99,7.54 0,4.21 -3.7,6.79 -8.16,6.79 -4.33,0 -7.25,-3.03 -7.25,-6.24 0,-1.78 1.5,-1.95 1.84,-1.95 0.84,0 1.86,0.59 1.86,1.85 0,0.62 -0.25,1.85 -2.06,1.85 1.08,2.47 3.45,3.24 5.09,3.24 3.48,0 5.3,-2.72 5.3,-5.54 0,-3.04 -2.16,-5.45 -3.28,-6.7 l -8.4,-8.3 c -0.35,-0.31 -0.35,-0.38 -0.35,-1.36 l 14.36,0 z"
                     inkscape:connector-curvature="0"
                     style="fill:#000000;stroke-width:0" /><path
                     id="path3730"
                     d="m 561.38,423.15 -0.61,-0.44 -0.58,-0.46 -0.55,-0.48 -0.52,-0.49 -0.5,-0.5 -0.47,-0.51 -0.45,-0.52 -0.42,-0.54 -0.4,-0.54 -0.38,-0.55 -0.35,-0.56 -0.33,-0.56 -0.31,-0.57 -0.29,-0.57 -0.26,-0.58 -0.25,-0.58 -0.23,-0.58 -0.2,-0.58 -0.19,-0.59 -0.18,-0.58 -0.15,-0.58 -0.14,-0.58 -0.12,-0.57 -0.11,-0.58 -0.1,-0.56 -0.07,-0.56 -0.07,-0.55 -0.05,-0.55 -0.04,-0.54 -0.03,-0.52 -0.01,-0.52 -0.01,-0.51 c 0,-4.91 1.46,-12.55 8.37,-17.43 0.28,0 0.69,0 0.69,0.41 0,0.22 -0.1,0.29 -0.34,0.53 -4.64,4.18 -6.35,10.11 -6.35,16.46 0,9.41 3.59,14.01 6.45,16.6 0.14,0.13 0.24,0.24 0.24,0.41 0,0.42 -0.41,0.42 -0.69,0.42 z"
                     inkscape:connector-curvature="0"
                     style="fill:#000000;stroke-width:0" /><path
                     id="path3732"
                     d="m 575.68,419.18 0,0.04 0,0.04 0,0.04 0,0.04 0,0.04 0,0.04 0,0.03 0,0.04 -0.01,0.03 0,0.03 0,0.04 0,0.03 -0.01,0.02 0,0.03 0,0.03 -0.01,0.03 0,0.02 0,0.02 -0.02,0.05 -0.01,0.04 -0.01,0.04 -0.02,0.03 -0.02,0.03 -0.02,0.03 -0.03,0.03 -0.02,0.02 -0.03,0.02 -0.04,0.02 -0.03,0.01 -0.04,0.01 -0.05,0.02 -0.05,0 -0.02,0.01 -0.03,0 -0.03,0.01 -0.02,0 -0.03,0 -0.03,0 -0.04,0 -0.03,0.01 -0.03,0 -0.04,0 -0.03,0 -0.04,0 -0.04,0 -0.04,0 -0.04,0 -0.04,0 -0.05,0 -0.04,0 c -2.24,-2.19 -5.41,-2.23 -6.84,-2.23 l 0,-1.25 c 0.84,0 3.14,0 5.05,0.97 l 0,-17.78 c 0,-1.15 0,-1.61 -3.48,-1.61 l -1.33,0 0,-1.25 12.45,0 0,1.25 -1.32,0 c -3.49,0 -3.49,0.46 -3.49,1.61 z"
                     inkscape:connector-curvature="0"
                     style="fill:#000000;stroke-width:0" /><path
                     id="path3734"
                     d="m 587.14,423.15 -0.03,0 -0.02,0 -0.03,0 -0.02,0 -0.03,0 -0.02,0 -0.03,0 -0.03,0 -0.03,-0.01 -0.02,0 -0.03,0 -0.03,-0.01 -0.03,-0.01 -0.02,0 -0.03,-0.01 -0.02,-0.01 -0.03,-0.01 -0.02,-0.01 -0.03,-0.02 -0.02,-0.01 -0.02,-0.02 -0.02,-0.01 -0.02,-0.02 -0.01,-0.01 0,-0.01 -0.01,-0.02 -0.01,-0.01 -0.01,-0.01 0,-0.01 -0.01,-0.02 0,-0.01 -0.01,-0.01 0,-0.02 -0.01,-0.01 0,-0.02 -0.01,-0.02 0,-0.01 0,-0.02 0,-0.02 0,-0.02 0,-0.02 c 0,-0.17 0.1,-0.28 0.31,-0.52 3,-2.75 6.35,-7.46 6.35,-16.46 0,-7.29 -2.27,-12.79 -6.04,-16.21 -0.59,-0.59 -0.62,-0.63 -0.62,-0.81 0,-0.17 0.1,-0.41 0.45,-0.41 0.42,0 3.73,2.3 6.03,6.66 1.54,2.89 2.55,6.66 2.55,10.74 0,4.91 -1.47,12.55 -8.37,17.43 z"
                     inkscape:connector-curvature="0"
                     style="fill:#000000;stroke-width:0" /></g>              </g>
            </g>
            <g
               transform="translate(45.862931,-301.87393)"
               id="g13051">
              <ellipse
                 ry="56.815273"
                 rx="88.98777"
                 cy="871.64856"
                 cx="399.76047"
                 id="path3526-4-7"
                 style="fill:#0099ff;stroke:none;stroke-width:4;stroke-miterlimit:4;stroke-dasharray:none" />
              <g
                 id="g12373"
                 transform="translate(27.02229,523.22099)">
                <g
                   word-spacing="normal"
                   letter-spacing="normal"
                   font-size-adjust="none"
                   font-stretch="normal"
                   font-weight="normal"
                   font-variant="normal"
                   font-style="normal"
                   stroke-miterlimit="10.433"
                   xml:space="preserve"
                   transform="matrix(1.0629921,0,0,-1.0629921,-186.02362,789.27165)"
                   id="g12375"
                   style="font-style:normal;font-variant:normal;font-weight:normal;font-stretch:normal;letter-spacing:normal;word-spacing:normal;text-anchor:start;fill:none;fill-opacity:1;fill-rule:evenodd;stroke:#000000;stroke-linecap:butt;stroke-linejoin:miter;stroke-miterlimit:10.43299961;stroke-dasharray:none;stroke-dashoffset:0;stroke-opacity:1"><path
                     id="path12377"
                     d="m 478.81,423.79 0.45,0.09 0.44,0.11 0.43,0.12 0.43,0.13 0.41,0.15 0.4,0.15 0.39,0.17 0.38,0.18 0.37,0.19 0.36,0.19 0.35,0.21 0.33,0.22 0.32,0.23 0.31,0.24 0.3,0.24 0.28,0.26 0.27,0.26 0.25,0.27 0.24,0.28 0.22,0.28 0.21,0.29 0.19,0.3 0.17,0.3 0.16,0.31 0.14,0.32 0.12,0.32 0.11,0.32 0.08,0.33 0.07,0.33 0.05,0.34 0.03,0.34 0.01,0.35 c 0,4.33 -4.58,8.41 -11.06,8.41 l -0.34,-1.54 c 4.83,0 6.57,-4.24 6.57,-6.87 0,-3.2 -2.44,-7.38 -7.97,-7.38 l -7.22,0 0,-1.09 9.36,0 c 4.94,0 7.03,-4.64 7.03,-7.98 0,-3.53 -2.59,-7.62 -7.72,-7.62 l 0,0 -6.23,0 c -2.34,0 -2.44,0.35 -2.44,2 l 0,13.6 0,1.09 0,12.25 c 0,1.65 0.1,2 2.44,2 l 6.18,0 0.34,1.54 -18.23,0 0,-1.54 1.2,0 c 3.83,0 3.94,-0.55 3.94,-2.34 l 0,-26.25 c 0,-1.8 -0.11,-2.35 -3.94,-2.35 l -1.2,0 0,-1.54 19.53,0 c 6.63,0 11.11,4.43 11.11,9.12 0,4.33 -4.09,8.06 -9.62,8.67 z"
                     inkscape:connector-curvature="0"
                     style="fill:#000000;stroke-width:0" /><path
                     id="path12379"
                     d="m 493.79,423.04 0.02,-0.96 0.07,-0.95 0.12,-0.92 0.15,-0.91 0.2,-0.89 0.24,-0.88 0.29,-0.85 0.31,-0.83 0.36,-0.8 0.39,-0.79 0.43,-0.76 0.46,-0.73 0.49,-0.71 0.53,-0.68 0.55,-0.65 0.58,-0.63 0.61,-0.59 0.64,-0.56 0.66,-0.53 0.68,-0.5 0.7,-0.46 0.73,-0.43 0.74,-0.39 0.77,-0.35 0.78,-0.32 0.79,-0.28 0.82,-0.24 0.82,-0.19 0.84,-0.16 0.84,-0.11 0.86,-0.07 0.86,-0.02 c 8.12,0 13,6.93 13,12.71 0,0.5 0,0.84 -0.64,0.84 -0.55,0 -0.55,-0.29 -0.6,-0.79 -0.4,-7.13 -5.73,-11.21 -11.16,-11.21 -3.04,0 -12.8,1.69 -12.8,16.53 0,14.9 9.71,16.59 12.75,16.59 5.43,0 9.86,-4.53 10.86,-11.8 0.1,-0.7 0.1,-0.85 0.8,-0.85 0.79,0 0.79,0.15 0.79,1.2 l 0,11.8 c 0,0.85 0,1.2 -0.54,1.2 -0.2,0 -0.4,0 -0.8,-0.6 l -2.49,-3.68 c -1.84,1.79 -4.38,4.28 -9.17,4.28 -9.31,0 -17.33,-7.92 -17.33,-18.08 z"
                     inkscape:connector-curvature="0"
                     style="fill:#000000;stroke-width:0" /><path
                     id="path12381"
                     d="m 538.68,419.18 0,0.04 0,0.04 0,0.04 0,0.04 0,0.04 0,0.04 0,0.03 0,0.04 -0.01,0.03 0,0.03 0,0.04 0,0.03 -0.01,0.02 0,0.03 0,0.03 -0.01,0.03 0,0.02 0,0.02 -0.02,0.05 -0.01,0.04 -0.01,0.04 -0.02,0.03 -0.02,0.03 -0.02,0.03 -0.03,0.03 -0.02,0.02 -0.03,0.02 -0.04,0.02 -0.03,0.01 -0.04,0.01 -0.05,0.02 -0.05,0 -0.02,0.01 -0.03,0 -0.03,0.01 -0.02,0 -0.03,0 -0.03,0 -0.04,0 -0.03,0.01 -0.03,0 -0.04,0 -0.03,0 -0.04,0 -0.04,0 -0.04,0 -0.04,0 -0.04,0 -0.05,0 -0.04,0 c -2.24,-2.19 -5.41,-2.23 -6.84,-2.23 l 0,-1.25 c 0.84,0 3.14,0 5.05,0.97 l 0,-17.78 c 0,-1.15 0,-1.61 -3.48,-1.61 l -1.33,0 0,-1.25 12.45,0 0,1.25 -1.32,0 c -3.49,0 -3.49,0.46 -3.49,1.61 z"
                     inkscape:connector-curvature="0"
                     style="fill:#000000;stroke-width:0" /><path
                     id="path12383"
                     d="m 559.38,423.15 -0.61,-0.44 -0.58,-0.46 -0.55,-0.48 -0.52,-0.49 -0.5,-0.5 -0.47,-0.51 -0.45,-0.52 -0.42,-0.54 -0.4,-0.54 -0.38,-0.55 -0.35,-0.56 -0.33,-0.56 -0.31,-0.57 -0.29,-0.57 -0.26,-0.58 -0.25,-0.58 -0.23,-0.58 -0.2,-0.58 -0.19,-0.59 -0.18,-0.58 -0.15,-0.58 -0.14,-0.58 -0.12,-0.57 -0.11,-0.58 -0.1,-0.56 -0.07,-0.56 -0.07,-0.55 -0.05,-0.55 -0.04,-0.54 -0.03,-0.52 -0.01,-0.52 -0.01,-0.51 c 0,-4.91 1.46,-12.55 8.37,-17.43 0.28,0 0.69,0 0.69,0.41 0,0.22 -0.1,0.29 -0.34,0.53 -4.64,4.18 -6.35,10.11 -6.35,16.46 0,9.41 3.59,14.01 6.45,16.6 0.14,0.13 0.24,0.24 0.24,0.41 0,0.42 -0.41,0.42 -0.69,0.42 z"
                     inkscape:connector-curvature="0"
                     style="fill:#000000;stroke-width:0" /><path
                     id="path12385"
                     d="m 573.68,419.18 0,0.04 0,0.04 0,0.04 0,0.04 0,0.04 0,0.04 0,0.03 0,0.04 -0.01,0.03 0,0.03 0,0.04 0,0.03 -0.01,0.02 0,0.03 0,0.03 -0.01,0.03 0,0.02 0,0.02 -0.02,0.05 -0.01,0.04 -0.01,0.04 -0.02,0.03 -0.02,0.03 -0.02,0.03 -0.03,0.03 -0.02,0.02 -0.03,0.02 -0.04,0.02 -0.03,0.01 -0.04,0.01 -0.05,0.02 -0.05,0 -0.02,0.01 -0.03,0 -0.03,0.01 -0.02,0 -0.03,0 -0.03,0 -0.04,0 -0.03,0.01 -0.03,0 -0.04,0 -0.03,0 -0.04,0 -0.04,0 -0.04,0 -0.04,0 -0.04,0 -0.05,0 -0.04,0 c -2.24,-2.19 -5.41,-2.23 -6.84,-2.23 l 0,-1.25 c 0.84,0 3.14,0 5.05,0.97 l 0,-17.78 c 0,-1.15 0,-1.61 -3.48,-1.61 l -1.33,0 0,-1.25 12.45,0 0,1.25 -1.32,0 c -3.49,0 -3.49,0.46 -3.49,1.61 z"
                     inkscape:connector-curvature="0"
                     style="fill:#000000;stroke-width:0" /><path
                     id="path12387"
                     d="m 585.14,423.15 -0.03,0 -0.02,0 -0.03,0 -0.02,0 -0.03,0 -0.02,0 -0.03,0 -0.03,0 -0.03,-0.01 -0.02,0 -0.03,0 -0.03,-0.01 -0.03,-0.01 -0.02,0 -0.03,-0.01 -0.02,-0.01 -0.03,-0.01 -0.02,-0.01 -0.03,-0.02 -0.02,-0.01 -0.02,-0.02 -0.02,-0.01 -0.02,-0.02 -0.01,-0.01 0,-0.01 -0.01,-0.02 -0.01,-0.01 -0.01,-0.01 0,-0.01 -0.01,-0.02 0,-0.01 -0.01,-0.01 0,-0.02 -0.01,-0.01 0,-0.02 -0.01,-0.02 0,-0.01 0,-0.02 0,-0.02 0,-0.02 0,-0.02 c 0,-0.17 0.1,-0.28 0.31,-0.52 3,-2.75 6.35,-7.46 6.35,-16.46 0,-7.29 -2.27,-12.79 -6.04,-16.21 -0.59,-0.59 -0.62,-0.63 -0.62,-0.81 0,-0.17 0.1,-0.41 0.45,-0.41 0.42,0 3.73,2.3 6.03,6.66 1.54,2.89 2.55,6.66 2.55,10.74 0,4.91 -1.47,12.55 -8.37,17.43 z"
                     inkscape:connector-curvature="0"
                     style="fill:#000000;stroke-width:0" /></g>              </g>
            </g>
            <g
               transform="translate(60.580189,-178.66006)"
               id="g13040">
              <ellipse
                 ry="56.815273"
                 rx="88.98777"
                 cy="748.43469"
                 cx="578.42053"
                 id="path3526-4-4"
                 style="fill:#0099ff;stroke:none;stroke-width:4;stroke-miterlimit:4;stroke-dasharray:none" />
              <g
                 id="g12609"
                 transform="translate(205.68235,400.00713)">
                <g
                   id="g12611"
                   transform="matrix(1.0629921,0,0,-1.0629921,-186.02362,789.27165)"
                   xml:space="preserve"
                   stroke-miterlimit="10.433"
                   font-style="normal"
                   font-variant="normal"
                   font-weight="normal"
                   font-stretch="normal"
                   font-size-adjust="none"
                   letter-spacing="normal"
                   word-spacing="normal"
                   style="font-style:normal;font-variant:normal;font-weight:normal;font-stretch:normal;letter-spacing:normal;word-spacing:normal;text-anchor:start;fill:none;fill-opacity:1;fill-rule:evenodd;stroke:#000000;stroke-linecap:butt;stroke-linejoin:miter;stroke-miterlimit:10.43299961;stroke-dasharray:none;stroke-dashoffset:0;stroke-opacity:1"><path
                     d="m 478.81,423.79 0.45,0.09 0.44,0.11 0.43,0.12 0.43,0.13 0.41,0.15 0.4,0.15 0.39,0.17 0.38,0.18 0.37,0.19 0.36,0.19 0.35,0.21 0.33,0.22 0.32,0.23 0.31,0.24 0.3,0.24 0.28,0.26 0.27,0.26 0.25,0.27 0.24,0.28 0.22,0.28 0.21,0.29 0.19,0.3 0.17,0.3 0.16,0.31 0.14,0.32 0.12,0.32 0.11,0.32 0.08,0.33 0.07,0.33 0.05,0.34 0.03,0.34 0.01,0.35 c 0,4.33 -4.58,8.41 -11.06,8.41 l -0.34,-1.54 c 4.83,0 6.57,-4.24 6.57,-6.87 0,-3.2 -2.44,-7.38 -7.97,-7.38 l -7.22,0 0,-1.09 9.36,0 c 4.94,0 7.03,-4.64 7.03,-7.98 0,-3.53 -2.59,-7.62 -7.72,-7.62 l 0,0 -6.23,0 c -2.34,0 -2.44,0.35 -2.44,2 l 0,13.6 0,1.09 0,12.25 c 0,1.65 0.1,2 2.44,2 l 6.18,0 0.34,1.54 -18.23,0 0,-1.54 1.2,0 c 3.83,0 3.94,-0.55 3.94,-2.34 l 0,-26.25 c 0,-1.8 -0.11,-2.35 -3.94,-2.35 l -1.2,0 0,-1.54 19.53,0 c 6.63,0 11.11,4.43 11.11,9.12 0,4.33 -4.09,8.06 -9.62,8.67 z"
                     id="path12613"
                     inkscape:connector-curvature="0"
                     style="fill:#000000;stroke-width:0" /><path
                     d="m 493.79,423.04 0.02,-0.96 0.07,-0.95 0.12,-0.92 0.15,-0.91 0.2,-0.89 0.24,-0.88 0.29,-0.85 0.31,-0.83 0.36,-0.8 0.39,-0.79 0.43,-0.76 0.46,-0.73 0.49,-0.71 0.53,-0.68 0.55,-0.65 0.58,-0.63 0.61,-0.59 0.64,-0.56 0.66,-0.53 0.68,-0.5 0.7,-0.46 0.73,-0.43 0.74,-0.39 0.77,-0.35 0.78,-0.32 0.79,-0.28 0.82,-0.24 0.82,-0.19 0.84,-0.16 0.84,-0.11 0.86,-0.07 0.86,-0.02 c 8.12,0 13,6.93 13,12.71 0,0.5 0,0.84 -0.64,0.84 -0.55,0 -0.55,-0.29 -0.6,-0.79 -0.4,-7.13 -5.73,-11.21 -11.16,-11.21 -3.04,0 -12.8,1.69 -12.8,16.53 0,14.9 9.71,16.59 12.75,16.59 5.43,0 9.86,-4.53 10.86,-11.8 0.1,-0.7 0.1,-0.85 0.8,-0.85 0.79,0 0.79,0.15 0.79,1.2 l 0,11.8 c 0,0.85 0,1.2 -0.54,1.2 -0.2,0 -0.4,0 -0.8,-0.6 l -2.49,-3.68 c -1.84,1.79 -4.38,4.28 -9.17,4.28 -9.31,0 -17.33,-7.92 -17.33,-18.08 z"
                     id="path12615"
                     inkscape:connector-curvature="0"
                     style="fill:#000000;stroke-width:0" /><path
                     d="m 538.68,419.18 0,0.04 0,0.04 0,0.04 0,0.04 0,0.04 0,0.04 0,0.03 0,0.04 -0.01,0.03 0,0.03 0,0.04 0,0.03 -0.01,0.02 0,0.03 0,0.03 -0.01,0.03 0,0.02 0,0.02 -0.02,0.05 -0.01,0.04 -0.01,0.04 -0.02,0.03 -0.02,0.03 -0.02,0.03 -0.03,0.03 -0.02,0.02 -0.03,0.02 -0.04,0.02 -0.03,0.01 -0.04,0.01 -0.05,0.02 -0.05,0 -0.02,0.01 -0.03,0 -0.03,0.01 -0.02,0 -0.03,0 -0.03,0 -0.04,0 -0.03,0.01 -0.03,0 -0.04,0 -0.03,0 -0.04,0 -0.04,0 -0.04,0 -0.04,0 -0.04,0 -0.05,0 -0.04,0 c -2.24,-2.19 -5.41,-2.23 -6.84,-2.23 l 0,-1.25 c 0.84,0 3.14,0 5.05,0.97 l 0,-17.78 c 0,-1.15 0,-1.61 -3.48,-1.61 l -1.33,0 0,-1.25 12.45,0 0,1.25 -1.32,0 c -3.49,0 -3.49,0.46 -3.49,1.61 z"
                     id="path12617"
                     inkscape:connector-curvature="0"
                     style="fill:#000000;stroke-width:0" /><path
                     d="m 559.38,423.15 -0.61,-0.44 -0.58,-0.46 -0.55,-0.48 -0.52,-0.49 -0.5,-0.5 -0.47,-0.51 -0.45,-0.52 -0.42,-0.54 -0.4,-0.54 -0.38,-0.55 -0.35,-0.56 -0.33,-0.56 -0.31,-0.57 -0.29,-0.57 -0.26,-0.58 -0.25,-0.58 -0.23,-0.58 -0.2,-0.58 -0.19,-0.59 -0.18,-0.58 -0.15,-0.58 -0.14,-0.58 -0.12,-0.57 -0.11,-0.58 -0.1,-0.56 -0.07,-0.56 -0.07,-0.55 -0.05,-0.55 -0.04,-0.54 -0.03,-0.52 -0.01,-0.52 -0.01,-0.51 c 0,-4.91 1.46,-12.55 8.37,-17.43 0.28,0 0.69,0 0.69,0.41 0,0.22 -0.1,0.29 -0.34,0.53 -4.64,4.18 -6.35,10.11 -6.35,16.46 0,9.41 3.59,14.01 6.45,16.6 0.14,0.13 0.24,0.24 0.24,0.41 0,0.42 -0.41,0.42 -0.69,0.42 z"
                     id="path12619"
                     inkscape:connector-curvature="0"
                     style="fill:#000000;stroke-width:0" /><path
                     d="m 579.61,403.35 -1.19,0 c -0.1,-0.77 -0.45,-2.83 -0.9,-3.18 -0.28,-0.21 -2.97,-0.21 -3.45,-0.21 l -6.42,0 c 3.66,3.25 4.88,4.22 6.97,5.86 2.58,2.06 4.99,4.22 4.99,7.54 0,4.21 -3.7,6.79 -8.16,6.79 -4.33,0 -7.25,-3.03 -7.25,-6.24 0,-1.78 1.5,-1.95 1.84,-1.95 0.84,0 1.86,0.59 1.86,1.85 0,0.62 -0.25,1.85 -2.06,1.85 1.08,2.47 3.45,3.24 5.09,3.24 3.48,0 5.3,-2.72 5.3,-5.54 0,-3.04 -2.16,-5.45 -3.28,-6.7 l -8.4,-8.3 c -0.35,-0.31 -0.35,-0.38 -0.35,-1.36 l 14.36,0 z"
                     id="path12621"
                     inkscape:connector-curvature="0"
                     style="fill:#000000;stroke-width:0" /><path
                     d="m 585.14,423.15 -0.03,0 -0.02,0 -0.03,0 -0.02,0 -0.03,0 -0.02,0 -0.03,0 -0.03,0 -0.03,-0.01 -0.02,0 -0.03,0 -0.03,-0.01 -0.03,-0.01 -0.02,0 -0.03,-0.01 -0.02,-0.01 -0.03,-0.01 -0.02,-0.01 -0.03,-0.02 -0.02,-0.01 -0.02,-0.02 -0.02,-0.01 -0.02,-0.02 -0.01,-0.01 0,-0.01 -0.01,-0.02 -0.01,-0.01 -0.01,-0.01 0,-0.01 -0.01,-0.02 0,-0.01 -0.01,-0.01 0,-0.02 -0.01,-0.01 0,-0.02 -0.01,-0.02 0,-0.01 0,-0.02 0,-0.02 0,-0.02 0,-0.02 c 0,-0.17 0.1,-0.28 0.31,-0.52 3,-2.75 6.35,-7.46 6.35,-16.46 0,-7.29 -2.27,-12.79 -6.04,-16.21 -0.59,-0.59 -0.62,-0.63 -0.62,-0.81 0,-0.17 0.1,-0.41 0.45,-0.41 0.42,0 3.73,2.3 6.03,6.66 1.54,2.89 2.55,6.66 2.55,10.74 0,4.91 -1.47,12.55 -8.37,17.43 z"
                     id="path12623"
                     inkscape:connector-curvature="0"
                     style="fill:#000000;stroke-width:0" /></g>              </g>
            </g>
          </g>
          <g
             id="g13198">
            <g
               transform="translate(449.04602,121.84479)"
               id="g3834">
              <ellipse
                 ry="56.815273"
                 rx="88.98777"
                 cy="625.22089"
                 cx="471.63525"
                 id="path3526"
                 style="fill:#0099ff;stroke:none;stroke-width:4;stroke-miterlimit:4;stroke-dasharray:none" />
              <g
                 transform="translate(98.897077,276.79332)"
                 id="g3634">
                <g
                   style="font-style:normal;font-variant:normal;font-weight:normal;font-stretch:normal;letter-spacing:normal;word-spacing:normal;text-anchor:start;fill:none;fill-opacity:1;fill-rule:evenodd;stroke:#000000;stroke-linecap:butt;stroke-linejoin:miter;stroke-miterlimit:10.43299961;stroke-dasharray:none;stroke-dashoffset:0;stroke-opacity:1"
                   id="g3636"
                   transform="matrix(1.0629921,0,0,-1.0629921,-186.02362,789.27165)"
                   xml:space="preserve"
                   stroke-miterlimit="10.433"
                   font-style="normal"
                   font-variant="normal"
                   font-weight="normal"
                   font-stretch="normal"
                   font-size-adjust="none"
                   letter-spacing="normal"
                   word-spacing="normal"><path
                     style="fill:#000000;stroke-width:0"
                     inkscape:connector-curvature="0"
                     d="m 478.81,423.79 0.45,0.09 0.44,0.11 0.43,0.12 0.43,0.13 0.41,0.15 0.4,0.15 0.39,0.17 0.38,0.18 0.37,0.19 0.36,0.19 0.35,0.21 0.33,0.22 0.32,0.23 0.31,0.24 0.3,0.24 0.28,0.26 0.27,0.26 0.25,0.27 0.24,0.28 0.22,0.28 0.21,0.29 0.19,0.3 0.17,0.3 0.16,0.31 0.14,0.32 0.12,0.32 0.11,0.32 0.08,0.33 0.07,0.33 0.05,0.34 0.03,0.34 0.01,0.35 c 0,4.33 -4.58,8.41 -11.06,8.41 l -0.34,-1.54 c 4.83,0 6.57,-4.24 6.57,-6.87 0,-3.2 -2.44,-7.38 -7.97,-7.38 l -7.22,0 0,-1.09 9.36,0 c 4.94,0 7.03,-4.64 7.03,-7.98 0,-3.53 -2.59,-7.62 -7.72,-7.62 l 0,0 -6.23,0 c -2.34,0 -2.44,0.35 -2.44,2 l 0,13.6 0,1.09 0,12.25 c 0,1.65 0.1,2 2.44,2 l 6.18,0 0.34,1.54 -18.23,0 0,-1.54 1.2,0 c 3.83,0 3.94,-0.55 3.94,-2.34 l 0,-26.25 c 0,-1.8 -0.11,-2.35 -3.94,-2.35 l -1.2,0 0,-1.54 19.53,0 c 6.63,0 11.11,4.43 11.11,9.12 0,4.33 -4.09,8.06 -9.62,8.67 z"
                     id="path3638" /><path
                     style="fill:#000000;stroke-width:0"
                     inkscape:connector-curvature="0"
                     d="m 493.79,423.04 0.02,-0.96 0.07,-0.95 0.12,-0.92 0.15,-0.91 0.2,-0.89 0.24,-0.88 0.29,-0.85 0.31,-0.83 0.36,-0.8 0.39,-0.79 0.43,-0.76 0.46,-0.73 0.49,-0.71 0.53,-0.68 0.55,-0.65 0.58,-0.63 0.61,-0.59 0.64,-0.56 0.66,-0.53 0.68,-0.5 0.7,-0.46 0.73,-0.43 0.74,-0.39 0.77,-0.35 0.78,-0.32 0.79,-0.28 0.82,-0.24 0.82,-0.19 0.84,-0.16 0.84,-0.11 0.86,-0.07 0.86,-0.02 c 8.12,0 13,6.93 13,12.71 0,0.5 0,0.84 -0.64,0.84 -0.55,0 -0.55,-0.29 -0.6,-0.79 -0.4,-7.13 -5.73,-11.21 -11.16,-11.21 -3.04,0 -12.8,1.69 -12.8,16.53 0,14.9 9.71,16.59 12.75,16.59 5.43,0 9.86,-4.53 10.86,-11.8 0.1,-0.7 0.1,-0.85 0.8,-0.85 0.79,0 0.79,0.15 0.79,1.2 l 0,11.8 c 0,0.85 0,1.2 -0.54,1.2 -0.2,0 -0.4,0 -0.8,-0.6 l -2.49,-3.68 c -1.84,1.79 -4.38,4.28 -9.17,4.28 -9.31,0 -17.33,-7.92 -17.33,-18.08 z"
                     id="path3640" /><path
                     style="fill:#000000;stroke-width:0"
                     inkscape:connector-curvature="0"
                     d="m 544.61,403.35 -1.19,0 c -0.1,-0.77 -0.45,-2.83 -0.9,-3.18 -0.28,-0.21 -2.97,-0.21 -3.45,-0.21 l -6.42,0 c 3.66,3.25 4.88,4.22 6.97,5.86 2.58,2.06 4.99,4.22 4.99,7.54 0,4.21 -3.7,6.79 -8.16,6.79 -4.33,0 -7.25,-3.03 -7.25,-6.24 0,-1.78 1.5,-1.95 1.84,-1.95 0.84,0 1.86,0.59 1.86,1.85 0,0.62 -0.25,1.85 -2.06,1.85 1.08,2.47 3.45,3.24 5.09,3.24 3.48,0 5.3,-2.72 5.3,-5.54 0,-3.04 -2.16,-5.45 -3.28,-6.7 l -8.4,-8.3 c -0.35,-0.31 -0.35,-0.38 -0.35,-1.36 l 14.36,0 z"
                     id="path3642" /><path
                     style="fill:#000000;stroke-width:0"
                     inkscape:connector-curvature="0"
                     d="m 559.38,423.15 -0.61,-0.44 -0.58,-0.46 -0.55,-0.48 -0.52,-0.49 -0.5,-0.5 -0.47,-0.51 -0.45,-0.52 -0.42,-0.54 -0.4,-0.54 -0.38,-0.55 -0.35,-0.56 -0.33,-0.56 -0.31,-0.57 -0.29,-0.57 -0.26,-0.58 -0.25,-0.58 -0.23,-0.58 -0.2,-0.58 -0.19,-0.59 -0.18,-0.58 -0.15,-0.58 -0.14,-0.58 -0.12,-0.57 -0.11,-0.58 -0.1,-0.56 -0.07,-0.56 -0.07,-0.55 -0.05,-0.55 -0.04,-0.54 -0.03,-0.52 -0.01,-0.52 -0.01,-0.51 c 0,-4.91 1.46,-12.55 8.37,-17.43 0.28,0 0.69,0 0.69,0.41 0,0.22 -0.1,0.29 -0.34,0.53 -4.64,4.18 -6.35,10.11 -6.35,16.46 0,9.41 3.59,14.01 6.45,16.6 0.14,0.13 0.24,0.24 0.24,0.41 0,0.42 -0.41,0.42 -0.69,0.42 z"
                     id="path3644" /><path
                     style="fill:#000000;stroke-width:0"
                     inkscape:connector-curvature="0"
                     d="m 573.68,419.18 0,0.04 0,0.04 0,0.04 0,0.04 0,0.04 0,0.04 0,0.03 0,0.04 -0.01,0.03 0,0.03 0,0.04 0,0.03 -0.01,0.02 0,0.03 0,0.03 -0.01,0.03 0,0.02 0,0.02 -0.02,0.05 -0.01,0.04 -0.01,0.04 -0.02,0.03 -0.02,0.03 -0.02,0.03 -0.03,0.03 -0.02,0.02 -0.03,0.02 -0.04,0.02 -0.03,0.01 -0.04,0.01 -0.05,0.02 -0.05,0 -0.02,0.01 -0.03,0 -0.03,0.01 -0.02,0 -0.03,0 -0.03,0 -0.04,0 -0.03,0.01 -0.03,0 -0.04,0 -0.03,0 -0.04,0 -0.04,0 -0.04,0 -0.04,0 -0.04,0 -0.05,0 -0.04,0 c -2.24,-2.19 -5.41,-2.23 -6.84,-2.23 l 0,-1.25 c 0.84,0 3.14,0 5.05,0.97 l 0,-17.78 c 0,-1.15 0,-1.61 -3.48,-1.61 l -1.33,0 0,-1.25 12.45,0 0,1.25 -1.32,0 c -3.49,0 -3.49,0.46 -3.49,1.61 z"
                     id="path3646" /><path
                     style="fill:#000000;stroke-width:0"
                     inkscape:connector-curvature="0"
                     d="m 585.14,423.15 -0.03,0 -0.02,0 -0.03,0 -0.02,0 -0.03,0 -0.02,0 -0.03,0 -0.03,0 -0.03,-0.01 -0.02,0 -0.03,0 -0.03,-0.01 -0.03,-0.01 -0.02,0 -0.03,-0.01 -0.02,-0.01 -0.03,-0.01 -0.02,-0.01 -0.03,-0.02 -0.02,-0.01 -0.02,-0.02 -0.02,-0.01 -0.02,-0.02 -0.01,-0.01 0,-0.01 -0.01,-0.02 -0.01,-0.01 -0.01,-0.01 0,-0.01 -0.01,-0.02 0,-0.01 -0.01,-0.01 0,-0.02 -0.01,-0.01 0,-0.02 -0.01,-0.02 0,-0.01 0,-0.02 0,-0.02 0,-0.02 0,-0.02 c 0,-0.17 0.1,-0.28 0.31,-0.52 3,-2.75 6.35,-7.46 6.35,-16.46 0,-7.29 -2.27,-12.79 -6.04,-16.21 -0.59,-0.59 -0.62,-0.63 -0.62,-0.81 0,-0.17 0.1,-0.41 0.45,-0.41 0.42,0 3.73,2.3 6.03,6.66 1.54,2.89 2.55,6.66 2.55,10.74 0,4.91 -1.47,12.55 -8.37,17.43 z"
                     id="path3648" /></g>              </g>
            </g>
            <g
               transform="translate(219.04684,241.63605)"
               id="g13029">
              <ellipse
                 ry="56.815273"
                 rx="88.98777"
                 cy="505.42963"
                 cx="507.23035"
                 id="path3526-4"
                 style="fill:#0099ff;stroke:none;stroke-width:4;stroke-miterlimit:4;stroke-dasharray:none" />
              <g
                 id="g12861"
                 transform="translate(134.49217,157.00206)">
                <g
                   word-spacing="normal"
                   letter-spacing="normal"
                   font-size-adjust="none"
                   font-stretch="normal"
                   font-weight="normal"
                   font-variant="normal"
                   font-style="normal"
                   stroke-miterlimit="10.433"
                   xml:space="preserve"
                   transform="matrix(1.0629921,0,0,-1.0629921,-186.02362,789.27165)"
                   id="g12863"
                   style="font-style:normal;font-variant:normal;font-weight:normal;font-stretch:normal;letter-spacing:normal;word-spacing:normal;text-anchor:start;fill:none;fill-opacity:1;fill-rule:evenodd;stroke:#000000;stroke-linecap:butt;stroke-linejoin:miter;stroke-miterlimit:10.43299961;stroke-dasharray:none;stroke-dashoffset:0;stroke-opacity:1"><path
                     id="path12865"
                     d="m 478.81,423.79 0.45,0.09 0.44,0.11 0.43,0.12 0.43,0.13 0.41,0.15 0.4,0.15 0.39,0.17 0.38,0.18 0.37,0.19 0.36,0.19 0.35,0.21 0.33,0.22 0.32,0.23 0.31,0.24 0.3,0.24 0.28,0.26 0.27,0.26 0.25,0.27 0.24,0.28 0.22,0.28 0.21,0.29 0.19,0.3 0.17,0.3 0.16,0.31 0.14,0.32 0.12,0.32 0.11,0.32 0.08,0.33 0.07,0.33 0.05,0.34 0.03,0.34 0.01,0.35 c 0,4.33 -4.58,8.41 -11.06,8.41 l -0.34,-1.54 c 4.83,0 6.57,-4.24 6.57,-6.87 0,-3.2 -2.44,-7.38 -7.97,-7.38 l -7.22,0 0,-1.09 9.36,0 c 4.94,0 7.03,-4.64 7.03,-7.98 0,-3.53 -2.59,-7.62 -7.72,-7.62 l 0,0 -6.23,0 c -2.34,0 -2.44,0.35 -2.44,2 l 0,13.6 0,1.09 0,12.25 c 0,1.65 0.1,2 2.44,2 l 6.18,0 0.34,1.54 -18.23,0 0,-1.54 1.2,0 c 3.83,0 3.94,-0.55 3.94,-2.34 l 0,-26.25 c 0,-1.8 -0.11,-2.35 -3.94,-2.35 l -1.2,0 0,-1.54 19.53,0 c 6.63,0 11.11,4.43 11.11,9.12 0,4.33 -4.09,8.06 -9.62,8.67 z"
                     inkscape:connector-curvature="0"
                     style="fill:#000000;stroke-width:0" /><path
                     id="path12867"
                     d="m 493.79,423.04 0.02,-0.96 0.07,-0.95 0.12,-0.92 0.15,-0.91 0.2,-0.89 0.24,-0.88 0.29,-0.85 0.31,-0.83 0.36,-0.8 0.39,-0.79 0.43,-0.76 0.46,-0.73 0.49,-0.71 0.53,-0.68 0.55,-0.65 0.58,-0.63 0.61,-0.59 0.64,-0.56 0.66,-0.53 0.68,-0.5 0.7,-0.46 0.73,-0.43 0.74,-0.39 0.77,-0.35 0.78,-0.32 0.79,-0.28 0.82,-0.24 0.82,-0.19 0.84,-0.16 0.84,-0.11 0.86,-0.07 0.86,-0.02 c 8.12,0 13,6.93 13,12.71 0,0.5 0,0.84 -0.64,0.84 -0.55,0 -0.55,-0.29 -0.6,-0.79 -0.4,-7.13 -5.73,-11.21 -11.16,-11.21 -3.04,0 -12.8,1.69 -12.8,16.53 0,14.9 9.71,16.59 12.75,16.59 5.43,0 9.86,-4.53 10.86,-11.8 0.1,-0.7 0.1,-0.85 0.8,-0.85 0.79,0 0.79,0.15 0.79,1.2 l 0,11.8 c 0,0.85 0,1.2 -0.54,1.2 -0.2,0 -0.4,0 -0.8,-0.6 l -2.49,-3.68 c -1.84,1.79 -4.38,4.28 -9.17,4.28 -9.31,0 -17.33,-7.92 -17.33,-18.08 z"
                     inkscape:connector-curvature="0"
                     style="fill:#000000;stroke-width:0" /><path
                     id="path12869"
                     d="m 538.68,419.18 0,0.04 0,0.04 0,0.04 0,0.04 0,0.04 0,0.04 0,0.03 0,0.04 -0.01,0.03 0,0.03 0,0.04 0,0.03 -0.01,0.02 0,0.03 0,0.03 -0.01,0.03 0,0.02 0,0.02 -0.02,0.05 -0.01,0.04 -0.01,0.04 -0.02,0.03 -0.02,0.03 -0.02,0.03 -0.03,0.03 -0.02,0.02 -0.03,0.02 -0.04,0.02 -0.03,0.01 -0.04,0.01 -0.05,0.02 -0.05,0 -0.02,0.01 -0.03,0 -0.03,0.01 -0.02,0 -0.03,0 -0.03,0 -0.04,0 -0.03,0.01 -0.03,0 -0.04,0 -0.03,0 -0.04,0 -0.04,0 -0.04,0 -0.04,0 -0.04,0 -0.05,0 -0.04,0 c -2.24,-2.19 -5.41,-2.23 -6.84,-2.23 l 0,-1.25 c 0.84,0 3.14,0 5.05,0.97 l 0,-17.78 c 0,-1.15 0,-1.61 -3.48,-1.61 l -1.33,0 0,-1.25 12.45,0 0,1.25 -1.32,0 c -3.49,0 -3.49,0.46 -3.49,1.61 z"
                     inkscape:connector-curvature="0"
                     style="fill:#000000;stroke-width:0" /><path
                     id="path12871"
                     d="m 559.38,423.15 -0.61,-0.44 -0.58,-0.46 -0.55,-0.48 -0.52,-0.49 -0.5,-0.5 -0.47,-0.51 -0.45,-0.52 -0.42,-0.54 -0.4,-0.54 -0.38,-0.55 -0.35,-0.56 -0.33,-0.56 -0.31,-0.57 -0.29,-0.57 -0.26,-0.58 -0.25,-0.58 -0.23,-0.58 -0.2,-0.58 -0.19,-0.59 -0.18,-0.58 -0.15,-0.58 -0.14,-0.58 -0.12,-0.57 -0.11,-0.58 -0.1,-0.56 -0.07,-0.56 -0.07,-0.55 -0.05,-0.55 -0.04,-0.54 -0.03,-0.52 -0.01,-0.52 -0.01,-0.51 c 0,-4.91 1.46,-12.55 8.37,-17.43 0.28,0 0.69,0 0.69,0.41 0,0.22 -0.1,0.29 -0.34,0.53 -4.64,4.18 -6.35,10.11 -6.35,16.46 0,9.41 3.59,14.01 6.45,16.6 0.14,0.13 0.24,0.24 0.24,0.41 0,0.42 -0.41,0.42 -0.69,0.42 z"
                     inkscape:connector-curvature="0"
                     style="fill:#000000;stroke-width:0" /><path
                     id="path12873"
                     d="m 571.52,408.64 0.25,0 0.25,-0.02 0.24,-0.02 0.24,-0.04 0.23,-0.05 0.23,-0.06 0.22,-0.07 0.22,-0.09 0.21,-0.09 0.2,-0.11 0.19,-0.11 0.19,-0.13 0.18,-0.13 0.18,-0.15 0.17,-0.16 0.15,-0.17 0.16,-0.18 0.14,-0.2 0.13,-0.2 0.13,-0.21 0.12,-0.23 0.11,-0.23 0.09,-0.25 0.09,-0.26 0.08,-0.27 0.07,-0.28 0.06,-0.29 0.05,-0.3 0.04,-0.31 0.03,-0.32 0.02,-0.33 0,-0.35 c 0,-4.32 -2.51,-5.61 -4.53,-5.61 -1.39,0 -4.46,0.38 -5.93,2.44 1.64,0.07 2.02,1.22 2.02,1.95 0,1.12 -0.83,1.92 -1.91,1.92 -0.98,0 -1.96,-0.59 -1.96,-2.02 0,-3.28 3.63,-5.41 7.85,-5.41 4.84,0 8.19,3.25 8.19,6.73 0,2.72 -2.23,5.44 -6.07,6.24 3.67,1.33 4.99,3.94 4.99,6.07 0,2.76 -3.17,4.81 -7.04,4.81 -3.87,0 -6.83,-1.88 -6.83,-4.67 0,-1.18 0.76,-1.85 1.81,-1.85 1.08,0 1.77,0.8 1.77,1.78 0,1.01 -0.69,1.75 -1.77,1.81 1.22,1.54 3.62,1.92 4.92,1.92 1.56,0 3.76,-0.76 3.76,-3.8 0,-1.46 -0.49,-3.07 -1.39,-4.15 -1.16,-1.32 -2.13,-1.39 -3.87,-1.5 -0.88,-0.07 -0.95,-0.07 -1.12,-0.1 -0.07,0 -0.35,-0.07 -0.35,-0.46 0,-0.49 0.31,-0.49 0.91,-0.49 z"
                     inkscape:connector-curvature="0"
                     style="fill:#000000;stroke-width:0" /><path
                     id="path12875"
                     d="m 585.14,423.15 -0.03,0 -0.02,0 -0.03,0 -0.02,0 -0.03,0 -0.02,0 -0.03,0 -0.03,0 -0.03,-0.01 -0.02,0 -0.03,0 -0.03,-0.01 -0.03,-0.01 -0.02,0 -0.03,-0.01 -0.02,-0.01 -0.03,-0.01 -0.02,-0.01 -0.03,-0.02 -0.02,-0.01 -0.02,-0.02 -0.02,-0.01 -0.02,-0.02 -0.01,-0.01 0,-0.01 -0.01,-0.02 -0.01,-0.01 -0.01,-0.01 0,-0.01 -0.01,-0.02 0,-0.01 -0.01,-0.01 0,-0.02 -0.01,-0.01 0,-0.02 -0.01,-0.02 0,-0.01 0,-0.02 0,-0.02 0,-0.02 0,-0.02 c 0,-0.17 0.1,-0.28 0.31,-0.52 3,-2.75 6.35,-7.46 6.35,-16.46 0,-7.29 -2.27,-12.79 -6.04,-16.21 -0.59,-0.59 -0.62,-0.63 -0.62,-0.81 0,-0.17 0.1,-0.41 0.45,-0.41 0.42,0 3.73,2.3 6.03,6.66 1.54,2.89 2.55,6.66 2.55,10.74 0,4.91 -1.47,12.55 -8.37,17.43 z"
                     inkscape:connector-curvature="0"
                     style="fill:#000000;stroke-width:0" /></g>              </g>
            </g>
          </g>
        </g>
        <path
           inkscape:connector-curvature="0"
           id="path13414"
           d="m 583.2122,454.77503 -84.19613,66.39858"
           style="fill:none;fill-rule:evenodd;stroke:#000000;stroke-width:2;stroke-linecap:butt;stroke-linejoin:miter;stroke-miterlimit:4;stroke-dasharray:none;stroke-opacity:1;marker-end:url(#marker13466)" />
        <path
           inkscape:connector-curvature="0"
           id="path13418"
           d="m 697.52727,456.14408 78.71996,58.86883"
           style="color:#000000;clip-rule:nonzero;display:inline;overflow:visible;visibility:visible;opacity:1;isolation:auto;mix-blend-mode:normal;color-interpolation:sRGB;color-interpolation-filters:linearRGB;solid-color:#000000;solid-opacity:1;fill:none;fill-opacity:1;fill-rule:evenodd;stroke:#000000;stroke-width:2;stroke-linecap:butt;stroke-linejoin:miter;stroke-miterlimit:4;stroke-dasharray:none;stroke-dashoffset:0;stroke-opacity:1;marker-end:url(#marker13580);color-rendering:auto;image-rendering:auto;shape-rendering:auto;text-rendering:auto;enable-background:accumulate" />
        <path
           inkscape:connector-curvature="0"
           id="path13420"
           d="M 794.04478,622.48277 757.76515,690.9349"
           style="color:#000000;clip-rule:nonzero;display:inline;overflow:visible;visibility:visible;opacity:1;isolation:auto;mix-blend-mode:normal;color-interpolation:sRGB;color-interpolation-filters:linearRGB;solid-color:#000000;solid-opacity:1;fill:none;fill-opacity:1;fill-rule:evenodd;stroke:#000000;stroke-width:2;stroke-linecap:butt;stroke-linejoin:miter;stroke-miterlimit:4;stroke-dasharray:none;stroke-dashoffset:0;stroke-opacity:1;marker-end:url(#marker13640);color-rendering:auto;image-rendering:auto;shape-rendering:auto;text-rendering:auto;enable-background:accumulate" />
        <path
           inkscape:connector-curvature="0"
           id="path13422"
           d="m 865.235,623.85181 29.43442,67.08309"
           style="color:#000000;clip-rule:nonzero;display:inline;overflow:visible;visibility:visible;opacity:1;isolation:auto;mix-blend-mode:normal;color-interpolation:sRGB;color-interpolation-filters:linearRGB;solid-color:#000000;solid-opacity:1;fill:none;fill-opacity:1;fill-rule:evenodd;stroke:#000000;stroke-width:2;stroke-linecap:butt;stroke-linejoin:miter;stroke-miterlimit:4;stroke-dasharray:none;stroke-dashoffset:0;stroke-opacity:1;marker-end:url(#marker13702);color-rendering:auto;image-rendering:auto;shape-rendering:auto;text-rendering:auto;enable-background:accumulate" />
        <path
           sodipodi:nodetypes="cc"
           inkscape:connector-curvature="0"
           id="path13443"
           d="m 638.0408,454.15741 -0.0669,58.11742"
           style="color:#000000;clip-rule:nonzero;display:inline;overflow:visible;visibility:visible;opacity:1;isolation:auto;mix-blend-mode:normal;color-interpolation:sRGB;color-interpolation-filters:linearRGB;solid-color:#000000;solid-opacity:1;fill:none;fill-opacity:1;fill-rule:evenodd;stroke:#000000;stroke-width:2;stroke-linecap:butt;stroke-linejoin:miter;stroke-miterlimit:4;stroke-dasharray:none;stroke-dashoffset:0;stroke-opacity:1;marker-end:url(#marker13522);color-rendering:auto;image-rendering:auto;shape-rendering:auto;text-rendering:auto;enable-background:accumulate" />
      </g>
      <g
         transform="matrix(1.8438169,0,0,2.5810294,-255.21491,-244.57818)"
         id="g13987">
        <g
           style="font-style:normal;font-variant:normal;font-weight:normal;font-stretch:normal;letter-spacing:normal;word-spacing:normal;text-anchor:start;fill:none;fill-opacity:1;fill-rule:evenodd;stroke:#000000;stroke-linecap:butt;stroke-linejoin:miter;stroke-miterlimit:10.43299961;stroke-dasharray:none;stroke-dashoffset:0;stroke-opacity:1"
           id="g13989"
           transform="matrix(1.0629921,0,0,-1.0629921,-186.02362,789.27165)"
           xml:space="preserve"
           stroke-miterlimit="10.433"
           font-style="normal"
           font-variant="normal"
           font-weight="normal"
           font-stretch="normal"
           font-size-adjust="none"
           letter-spacing="normal"
           word-spacing="normal"><path
             style="fill:#000000;stroke-width:0"
             inkscape:connector-curvature="0"
             d="m 492.16,422.29 0.4,-0.33 0.41,-0.32 0.41,-0.31 0.42,-0.29 0.42,-0.28 0.42,-0.28 0.42,-0.25 0.41,-0.25 0.41,-0.24 0.4,-0.22 0.4,-0.21 0.38,-0.2 0.37,-0.18 0.36,-0.17 0.17,-0.08 0.16,-0.08 0.16,-0.08 0.16,-0.07 c -1.79,-0.79 -4.23,-2.09 -6.28,-3.83 l -31.63,0 c -0.84,0 -1.79,0 -1.79,-1 0,-1 0.9,-1 1.74,-1 l 29.44,0 c -2.39,-2.29 -4.98,-6.67 -4.98,-7.32 0,-0.55 0.65,-0.55 0.95,-0.55 0.4,0 0.75,0 0.95,0.4 1.04,1.9 2.43,4.54 5.67,7.42 3.44,3.04 6.78,4.39 9.37,5.14 0.85,0.29 0.89,0.34 1,0.45 0.09,0.04 0.09,0.2 0.09,0.29 0,0.1 0,0.2 -0.04,0.3 l -0.16,0.1 c -0.09,0.05 -0.15,0.1 -1.09,0.4 -6.73,1.99 -11.71,6.53 -14.5,11.86 -0.54,0.99 -0.59,1.04 -1.29,1.04 -0.3,0 -0.95,0 -0.95,-0.54 0,-0.65 2.54,-4.99 4.98,-7.33 l -29.44,0 c -0.84,0 -1.74,0 -1.74,-0.99 0,-1 0.95,-1 1.79,-1 z"
             id="path13991" /></g>      </g>
      <g
         id="g14299"
         transform="matrix(1.146516,0,0,1.146516,-224.85294,203.9638)"
         style="fill:#009900">
        <g
           word-spacing="normal"
           letter-spacing="normal"
           font-size-adjust="none"
           font-stretch="normal"
           font-weight="normal"
           font-variant="normal"
           font-style="normal"
           stroke-miterlimit="10.433"
           xml:space="preserve"
           transform="matrix(1.0629921,0,0,-1.0629921,-186.02362,789.27165)"
           id="g14301"
           style="font-style:normal;font-variant:normal;font-weight:normal;font-stretch:normal;letter-spacing:normal;word-spacing:normal;text-anchor:start;fill:#009900;fill-opacity:1;fill-rule:evenodd;stroke:#000000;stroke-linecap:butt;stroke-linejoin:miter;stroke-miterlimit:10.43299961;stroke-dasharray:none;stroke-dashoffset:0;stroke-opacity:1"><path
             id="path14303"
             d="m 501.23,417.46 0.17,0 0.17,0 0.16,0 0.08,0.01 0.08,0 0.08,0.01 0.07,0.01 0.08,0.01 0.07,0.01 0.07,0.01 0.07,0.02 0.07,0.02 0.06,0.02 0.07,0.03 0.05,0.02 0.06,0.04 0.05,0.03 0.05,0.04 0.05,0.04 0.04,0.05 0.04,0.05 0.03,0.05 0.02,0.03 0.01,0.03 0.02,0.03 0.01,0.04 0.01,0.03 0.01,0.03 0.01,0.04 0.01,0.04 0.01,0.04 0,0.04 0.01,0.04 0,0.04 0,0.05 0,0.04 c 0,1 -0.89,1 -1.79,1 l -37.01,0 c 2.74,2.09 4.08,4.14 4.48,4.78 2.25,3.44 2.64,6.58 2.64,6.63 0,0.59 -0.59,0.59 -0.99,0.59 -0.85,0 -0.9,-0.09 -1.1,-0.99 -1.14,-4.88 -4.09,-9.02 -9.71,-11.36 -0.55,-0.2 -0.75,-0.3 -0.75,-0.65 0,-0.34 0.25,-0.45 0.75,-0.65 5.18,-2.14 8.51,-6.02 9.76,-11.6 0.15,-0.6 0.2,-0.75 1.05,-0.75 0.4,0 0.99,0 0.99,0.6 0,0.1 -0.45,3.24 -2.54,6.57 -1,1.5 -2.44,3.24 -4.58,4.84 z"
             inkscape:connector-curvature="0"
             style="fill:#009900;stroke-width:0" /><path
             id="path14305"
             d="m 529.83,417.46 0.16,0 0.16,0 0.15,0 0.08,0.01 0.08,0 0.07,0.01 0.08,0.01 0.07,0.01 0.07,0.01 0.07,0.01 0.07,0.02 0.06,0.02 0.07,0.02 0.06,0.03 0.05,0.02 0.06,0.04 0.05,0.03 0.05,0.04 0.05,0.04 0.04,0.05 0.04,0.05 0.01,0.02 0.02,0.03 0.02,0.03 0.01,0.03 0.02,0.03 0.01,0.04 0.01,0.03 0.01,0.03 0.01,0.04 0.01,0.04 0,0.04 0.01,0.04 0,0.04 0.01,0.04 0,0.05 0,0.04 c 0,1 -0.9,1 -1.74,1 l -26.95,0 c -0.85,0 -1.75,0 -1.75,-1 0,-0.99 0.9,-0.99 1.75,-0.99 z"
             inkscape:connector-curvature="0"
             style="fill:#009900;stroke-width:0" /></g>      </g>
      <g
         transform="translate(-148.77385,221.74388)"
         style="color:#000000;clip-rule:nonzero;display:inline;overflow:visible;visibility:visible;opacity:1;isolation:auto;mix-blend-mode:normal;color-interpolation:sRGB;color-interpolation-filters:linearRGB;solid-color:#000000;solid-opacity:1;fill:#009900;fill-opacity:1;fill-rule:evenodd;stroke:none;stroke-width:1.14651597;stroke-linecap:butt;stroke-linejoin:miter;stroke-miterlimit:10.43299961;stroke-dasharray:none;stroke-dashoffset:0;stroke-opacity:1;color-rendering:auto;image-rendering:auto;shape-rendering:auto;text-rendering:auto;enable-background:accumulate"
         id="g14621">
        <g
           style="color:#000000;font-style:normal;font-variant:normal;font-weight:normal;font-stretch:normal;letter-spacing:normal;word-spacing:normal;text-anchor:start;clip-rule:nonzero;display:inline;overflow:visible;visibility:visible;isolation:auto;mix-blend-mode:normal;color-interpolation:sRGB;color-interpolation-filters:linearRGB;solid-color:#000000;solid-opacity:1;fill:#009900;fill-opacity:1;fill-rule:evenodd;stroke:none;stroke-width:1.0785743;stroke-linecap:butt;stroke-linejoin:miter;stroke-miterlimit:10.43299961;stroke-dasharray:none;stroke-dashoffset:0;stroke-opacity:1;color-rendering:auto;image-rendering:auto;shape-rendering:auto;text-rendering:auto;enable-background:accumulate"
           id="g14623"
           transform="matrix(1.0629921,0,0,-1.0629921,-186.02362,789.27165)"
           xml:space="preserve"
           stroke-miterlimit="10.433"
           font-style="normal"
           font-variant="normal"
           font-weight="normal"
           font-stretch="normal"
           font-size-adjust="none"
           letter-spacing="normal"
           word-spacing="normal"><path
             inkscape:connector-curvature="0"
             style="color:#000000;clip-rule:nonzero;display:inline;overflow:visible;visibility:visible;isolation:auto;mix-blend-mode:normal;color-interpolation:sRGB;color-interpolation-filters:linearRGB;solid-color:#000000;solid-opacity:1;fill:#009900;fill-opacity:1;fill-rule:evenodd;stroke:none;stroke-width:1.0785743;stroke-linecap:butt;stroke-linejoin:miter;stroke-miterlimit:10.43299961;stroke-dasharray:none;stroke-dashoffset:0;stroke-opacity:1;color-rendering:auto;image-rendering:auto;shape-rendering:auto;text-rendering:auto;enable-background:accumulate"
             d="m 464.32,422.54 0,5.48 -6.93,-0.55 0,-1.54 c 3.49,0 3.89,-0.35 3.89,-2.79 l 0,-13.35 c 0,-2.25 -0.55,-2.25 -3.89,-2.25 l 0,-1.54 12.01,0 0,1.54 -1.04,0 c -3.69,0 -3.79,0.55 -3.79,2.35 l 0,7.66 c 0,4.94 2.09,9.37 5.88,9.37 0.34,0 0.44,0 0.54,-0.05 -0.15,-0.05 -1.14,-0.65 -1.14,-1.94 0,-1.39 1.04,-2.14 2.14,-2.14 0.9,0 2.14,0.59 2.14,2.19 0,1.59 -1.54,3.04 -3.68,3.04 -3.64,0 -5.43,-3.34 -6.13,-5.48 z"
             id="path14625" /><path
             inkscape:connector-curvature="0"
             style="color:#000000;clip-rule:nonzero;display:inline;overflow:visible;visibility:visible;isolation:auto;mix-blend-mode:normal;color-interpolation:sRGB;color-interpolation-filters:linearRGB;solid-color:#000000;solid-opacity:1;fill:#009900;fill-opacity:1;fill-rule:evenodd;stroke:none;stroke-width:1.0785743;stroke-linecap:butt;stroke-linejoin:miter;stroke-miterlimit:10.43299961;stroke-dasharray:none;stroke-dashoffset:0;stroke-opacity:1;color-rendering:auto;image-rendering:auto;shape-rendering:auto;text-rendering:auto;enable-background:accumulate"
             d="m 498.46,416.66 -0.01,0.59 -0.05,0.59 -0.07,0.58 -0.09,0.57 -0.13,0.56 -0.15,0.55 -0.17,0.54 -0.2,0.53 -0.22,0.52 -0.25,0.5 -0.26,0.49 -0.29,0.47 -0.31,0.46 -0.33,0.44 -0.35,0.42 -0.36,0.41 -0.39,0.39 -0.4,0.36 -0.41,0.35 -0.44,0.33 -0.44,0.3 -0.46,0.29 -0.48,0.26 -0.48,0.23 -0.5,0.21 -0.51,0.19 -0.52,0.16 -0.53,0.13 -0.54,0.1 -0.55,0.08 -0.56,0.04 -0.56,0.02 -0.05,-1.1 c 2.19,0 4.34,-1.1 5.63,-3.24 1.3,-2.14 1.3,-5.03 1.3,-6.92 0,-1.79 0,-4.49 -1.1,-6.68 -1.09,-2.24 -3.28,-3.68 -5.78,-3.68 l 0,0 c -2.14,0 -4.33,1.04 -5.68,3.34 -1.24,2.19 -1.24,5.23 -1.24,7.02 0,1.94 0,4.63 1.2,6.82 1.34,2.3 3.68,3.34 5.67,3.34 l 0.05,1.1 c -6.22,0 -11.06,-5.43 -11.06,-11.66 0,-6.43 5.18,-11.21 11.01,-11.21 6.03,0 11.06,4.88 11.06,11.21 z"
             id="path14627" /><path
             inkscape:connector-curvature="0"
             style="color:#000000;clip-rule:nonzero;display:inline;overflow:visible;visibility:visible;isolation:auto;mix-blend-mode:normal;color-interpolation:sRGB;color-interpolation-filters:linearRGB;solid-color:#000000;solid-opacity:1;fill:#009900;fill-opacity:1;fill-rule:evenodd;stroke:none;stroke-width:1.0785743;stroke-linecap:butt;stroke-linejoin:miter;stroke-miterlimit:10.43299961;stroke-dasharray:none;stroke-dashoffset:0;stroke-opacity:1;color-rendering:auto;image-rendering:auto;shape-rendering:auto;text-rendering:auto;enable-background:accumulate"
             d="m 524.46,416.66 -0.01,0.59 -0.05,0.59 -0.07,0.58 -0.09,0.57 -0.13,0.56 -0.15,0.55 -0.17,0.54 -0.2,0.53 -0.22,0.52 -0.25,0.5 -0.26,0.49 -0.29,0.47 -0.31,0.46 -0.33,0.44 -0.35,0.42 -0.36,0.41 -0.39,0.39 -0.4,0.36 -0.41,0.35 -0.44,0.33 -0.44,0.3 -0.46,0.29 -0.48,0.26 -0.48,0.23 -0.5,0.21 -0.51,0.19 -0.52,0.16 -0.53,0.13 -0.54,0.1 -0.55,0.08 -0.56,0.04 -0.56,0.02 -0.05,-1.1 c 2.19,0 4.34,-1.1 5.63,-3.24 1.3,-2.14 1.3,-5.03 1.3,-6.92 0,-1.79 0,-4.49 -1.1,-6.68 -1.09,-2.24 -3.28,-3.68 -5.78,-3.68 l 0,0 c -2.14,0 -4.33,1.04 -5.68,3.34 -1.24,2.19 -1.24,5.23 -1.24,7.02 0,1.94 0,4.63 1.2,6.82 1.34,2.3 3.68,3.34 5.67,3.34 l 0.05,1.1 c -6.22,0 -11.06,-5.43 -11.06,-11.66 0,-6.43 5.18,-11.21 11.01,-11.21 6.03,0 11.06,4.88 11.06,11.21 z"
             id="path14629" /><path
             inkscape:connector-curvature="0"
             style="color:#000000;clip-rule:nonzero;display:inline;overflow:visible;visibility:visible;isolation:auto;mix-blend-mode:normal;color-interpolation:sRGB;color-interpolation-filters:linearRGB;solid-color:#000000;solid-opacity:1;fill:#009900;fill-opacity:1;fill-rule:evenodd;stroke:none;stroke-width:1.0785743;stroke-linecap:butt;stroke-linejoin:miter;stroke-miterlimit:10.43299961;stroke-dasharray:none;stroke-dashoffset:0;stroke-opacity:1;color-rendering:auto;image-rendering:auto;shape-rendering:auto;text-rendering:auto;enable-background:accumulate"
             d="m 534.62,425.93 7.12,0 0,1.54 -7.12,0 0,9.17 -1.25,0 c -0.05,-4.09 -1.54,-9.42 -6.42,-9.62 l 0,-1.09 4.23,0 0,-13.75 c 0,-6.13 4.63,-6.73 6.42,-6.73 3.55,0 4.94,3.54 4.94,6.73 l 0,2.84 -1.25,0 0,-2.74 c 0,-3.69 -1.49,-5.58 -3.33,-5.58 -3.34,0 -3.34,4.53 -3.34,5.38 z"
             id="path14631" /></g>      </g>
      <rect
         y="362.33487"
         x="-131.34291"
         height="600.763"
         width="1232.9778"
         id="rect14815"
         style="color:#000000;clip-rule:nonzero;display:inline;overflow:visible;visibility:visible;opacity:1;isolation:auto;mix-blend-mode:normal;color-interpolation:sRGB;color-interpolation-filters:linearRGB;solid-color:#000000;solid-opacity:1;fill:none;fill-opacity:1;fill-rule:evenodd;stroke:none;stroke-width:1.14651597;stroke-linecap:butt;stroke-linejoin:miter;stroke-miterlimit:10.43299961;stroke-dasharray:none;stroke-dashoffset:0;stroke-opacity:1;marker-end:url(#marker14817);color-rendering:auto;image-rendering:auto;shape-rendering:auto;text-rendering:auto;enable-background:accumulate" />
    </g>
  </g>
</svg>
