<svg xmlns:dc="http://purl.org/dc/elements/1.1/" xmlns:cc="http://creativecommons.org/ns#" xmlns:rdf="http://www.w3.org/1999/02/22-rdf-syntax-ns#" xmlns:svg="http://www.w3.org/2000/svg" xmlns="http://www.w3.org/2000/svg" xmlns:sodipodi="http://sodipodi.sourceforge.net/DTD/sodipodi-0.dtd" xmlns:inkscape="http://www.inkscape.org/namespaces/inkscape" id="svg4850" version="1.1" inkscape:version="0.91 r13725" sodipodi:docname="coraLogo.svg" viewBox="195.3 193.61 70.53 70.53">
  <style>background-color: red</style>
  <defs id="defs4852"/>
  <sodipodi:namedview id="base" pagecolor="#ffffff" bordercolor="#666666" borderopacity="1.0" inkscape:pageopacity="0.0" inkscape:pageshadow="2" inkscape:zoom="3.0191176" inkscape:cx="308.57143" inkscape:cy="782.85714" inkscape:document-units="px" inkscape:current-layer="layer1" showgrid="false" inkscape:window-width="2560" inkscape:window-height="1416" inkscape:window-x="1920" inkscape:window-y="24" inkscape:window-maximized="1"/>
  <metadata id="metadata4855">
    <rdf:RDF>
      <cc:Work rdf:about="">
        <dc:format>image/svg+xml</dc:format>
        <dc:type rdf:resource="http://purl.org/dc/dcmitype/StillImage"/>
        <dc:title/>
      </cc:Work>
    </rdf:RDF>
  </metadata>
  <g inkscape:label="Layer 1" inkscape:groupmode="layer" id="layer1">
    <g id="g5472" transform="translate(6.2932294,-3.312226)" inkscape:export-xdpi="90" inkscape:export-ydpi="90">

      <g id="g8941-6-70-0-7-5-0" style="font-style:normal;font-weight:normal;font-size:12px;font-family:Dialog;opacity:1;color-interpolation:auto;fill:#ff3300;fill-opacity:1;stroke:#000000;stroke-width:8.90946102;stroke-linecap:square;stroke-linejoin:miter;stroke-miterlimit:10;stroke-dasharray:none;stroke-dashoffset:0;stroke-opacity:1;color-rendering:auto;image-rendering:auto;shape-rendering:auto;text-rendering:auto" transform="matrix(0.16836035,0,0,0.16836035,174.60168,195.64791)">
        <g id="g8231-4-8-2-7-0-7" style="color-interpolation:sRGB;fill:#ff3300;stroke:#ff0000;stroke-width:8.90946102;stroke-miterlimit:10;stroke-dasharray:none;color-rendering:optimizeSpeed;image-rendering:optimizeSpeed;shape-rendering:crispEdges;text-rendering:optimizeSpeed">
          <path inkscape:connector-curvature="0" id="path8233-2-8-4-1-8-0" d="m 441.4985,243.7155 10.2476,-4.2447 24.74,-10.2476 1.0089,-0.4504 0,-6.9959 -4.2447,-10.2476 -10.2477,-24.74 -42.4471,-102.4764 -0.4504,-1.0088 -14.1148,0 -10.2477,4.2447 -24.7399,10.2476 -1.0089,0.4504 0,6.9958 4.2447,10.2477 10.2476,24.74 42.4471,102.4763 0.4504,1.0089 z" style="fill:#ff3300;stroke:none;stroke-width:8.90946102;stroke-miterlimit:10;stroke-dasharray:none"/>
        </g>
        <g id="g8235-1-2-5-0-2-6" style="color-interpolation:linearRGB;fill:#ff3300;stroke-width:8.90946102;stroke-miterlimit:10;stroke-dasharray:none;color-rendering:optimizeQuality;image-rendering:optimizeQuality;text-rendering:geometricPrecision">
          <path inkscape:connector-curvature="0" id="path8237-4-0-7-8-0-1" style="fill:#ff3300;fill-rule:evenodd;stroke-width:8.90946102;stroke-miterlimit:10;stroke-dasharray:none" d="m 427.3836,243.7155 14.1149,0 10.2476,-4.2447 24.74,-10.2476 1.0089,-0.4504 0,-6.9959 -4.2447,-10.2476 -10.2477,-24.74 -42.4471,-102.4764 -0.4504,-1.0088 0,0 -14.1148,0 -10.2477,4.2447 -24.7399,10.2476 -1.0089,0.4504 0,6.9958 4.2447,10.2477 10.2476,24.74 42.4471,102.4763 0.4504,1.0089 0,0"/>
        </g>
        <g id="g8239-7-3-8-4-4-8" style="color-interpolation:sRGB;fill:#ff3300;stroke:#ff0000;stroke-width:8.90946102;stroke-miterlimit:10;stroke-dasharray:none;color-rendering:optimizeSpeed;image-rendering:optimizeSpeed;shape-rendering:crispEdges;text-rendering:optimizeSpeed">
          <path inkscape:connector-curvature="0" id="path8241-6-9-7-7-0-0" d="m 417.4808,132.3007 4.2447,-10.2477 10.2476,-24.74 0.3949,-1.0318 -4.9467,-4.9468 -24.74,-10.2477 L 300.2049,38.6396 289.9573,34.3949 288.9254,34 l -9.9807,9.9807 -4.2447,10.2476 -10.2477,24.74 -0.3949,1.0319 4.9468,4.9468 24.74,10.2476 102.4764,42.4471 10.2476,4.2447 1.0319,0.395 z" style="fill:#ff3300;stroke:none;stroke-width:8.90946102;stroke-miterlimit:10;stroke-dasharray:none"/>
        </g>
        <g id="g8243-3-3-2-4-2-9" style="color-interpolation:linearRGB;fill:#ff3300;stroke-width:8.90946102;stroke-miterlimit:10;stroke-dasharray:none;color-rendering:optimizeQuality;image-rendering:optimizeQuality;text-rendering:geometricPrecision">
          <path inkscape:connector-curvature="0" id="path8245-3-1-2-3-9-6" style="fill:#ff3300;fill-rule:evenodd;stroke-width:8.90946102;stroke-miterlimit:10;stroke-dasharray:none" d="m 407.5001,142.2814 9.9807,-9.9807 4.2447,-10.2477 10.2476,-24.74 0.3949,-1.0318 -4.9467,-4.9468 -24.74,-10.2477 L 300.2049,38.6396 289.9573,34.3949 288.9254,34 l 0,0 -9.9807,9.9807 -4.2447,10.2476 -10.2477,24.74 -0.3949,1.0319 4.9468,4.9468 24.74,10.2476 102.4764,42.4471 10.2476,4.2447 1.0319,0.395 0,0"/>
        </g>
        <g id="g8247-8-29-9-5-0-6" style="color-interpolation:sRGB;fill:#ff3300;stroke:#ff0000;stroke-width:8.90946102;stroke-miterlimit:10;stroke-dasharray:none;color-rendering:optimizeSpeed;image-rendering:optimizeSpeed;shape-rendering:crispEdges;text-rendering:optimizeSpeed">
          <path inkscape:connector-curvature="0" id="path8249-0-9-1-9-0-8" d="m 295.9666,95.3144 24.74,-10.2476 1.0089,-0.4504 0,-14.1149 -4.2447,-10.2476 -10.2476,-24.74 -0.4504,-1.0089 -6.9959,0 -102.4763,42.4471 -10.2477,4.2447 -24.74,10.2477 -1.0088,0.4504 0,14.1148 4.2447,10.2476 10.2476,24.74 0.4504,1.0089 6.9958,0 102.4764,-42.4471 z" style="fill:#ff3300;stroke:none;stroke-width:8.90946102;stroke-miterlimit:10;stroke-dasharray:none"/>
        </g>
        <g id="g8251-3-0-7-6-6-0" style="color-interpolation:linearRGB;fill:#ff3300;stroke-width:8.90946102;stroke-miterlimit:10;stroke-dasharray:none;color-rendering:optimizeQuality;image-rendering:optimizeQuality;text-rendering:geometricPrecision">
          <path inkscape:connector-curvature="0" id="path8253-9-06-6-0-4-4" style="fill:#ff3300;fill-rule:evenodd;stroke-width:8.90946102;stroke-miterlimit:10;stroke-dasharray:none" d="m 183.2426,142.0062 102.4764,-42.4471 10.2476,-4.2447 24.74,-10.2476 1.0089,-0.4504 0,-14.1149 -4.2447,-10.2476 -10.2476,-24.74 -0.4504,-1.0089 -6.9959,0 0,0 -102.4763,42.4471 -10.2477,4.2447 -24.74,10.2477 -1.0088,0.4504 0,14.1148 4.2447,10.2476 10.2476,24.74 0.4504,1.0089 6.9958,0 0,0"/>
        </g>
        <g id="g8255-2-9-9-1-7-1" style="color-interpolation:sRGB;fill:#ff3300;stroke:#ff0000;stroke-width:8.90946102;stroke-miterlimit:10;stroke-dasharray:none;color-rendering:optimizeSpeed;image-rendering:optimizeSpeed;shape-rendering:crispEdges;text-rendering:optimizeSpeed">
          <path inkscape:connector-curvature="0" id="path8257-3-6-5-5-2-4" d="m 175.313,80.0269 -1.0318,-0.3949 -4.9468,4.9468 -42.4471,102.4763 -4.2448,10.2476 -10.2476,24.74 -0.3949,1.0319 9.9807,9.9807 10.2476,4.2447 24.74,10.2477 1.0319,0.3949 4.9468,-4.9468 42.4471,-102.4764 4.2447,-10.2476 10.2476,-24.74 0.395,-1.0319 -9.9807,-9.9807 -10.2477,-4.2447 z" style="fill:#ff3300;stroke:none;stroke-width:8.90946102;stroke-miterlimit:10;stroke-dasharray:none"/>
        </g>
        <g id="g8259-3-8-2-6-6-7" style="color-interpolation:linearRGB;fill:#ff3300;stroke-width:8.90946102;stroke-miterlimit:10;stroke-dasharray:none;color-rendering:optimizeQuality;image-rendering:optimizeQuality;text-rendering:geometricPrecision">
          <path inkscape:connector-curvature="0" id="path8261-4-78-3-2-6-8" style="fill:#ff3300;fill-rule:evenodd;stroke-width:8.90946102;stroke-miterlimit:10;stroke-dasharray:none" d="m 158.0002,247.9426 4.9468,-4.9468 42.4471,-102.4764 4.2447,-10.2476 10.2476,-24.74 0.395,-1.0319 -9.9807,-9.9807 -10.2477,-4.2447 -24.74,-10.2476 -1.0318,-0.3949 0,0 -4.9468,4.9468 -42.4471,102.4763 -4.2448,10.2476 -10.2476,24.74 -0.3949,1.0319 9.9807,9.9807 10.2476,4.2447 24.74,10.2477 1.0319,0.3949 0,0"/>
        </g>
        <g id="g8263-6-3-5-7-6-9" style="color-interpolation:sRGB;fill:#ff3300;stroke:#ff0000;stroke-width:8.90946102;stroke-miterlimit:10;stroke-dasharray:none;color-rendering:optimizeSpeed;image-rendering:optimizeSpeed;shape-rendering:crispEdges;text-rendering:optimizeSpeed">
          <path inkscape:connector-curvature="0" id="path8265-4-5-2-0-8-0" d="m 220.0062,335.7532 0,-6.9958 -10.2476,-24.74 -42.4471,-102.4764 -4.2447,-10.2476 -0.4504,-1.0089 -14.1149,0 -10.2476,4.2447 -24.74,10.2476 -1.0089,0.4504 0,6.9959 10.2476,24.7399 42.4472,102.4764 4.2447,10.2476 0.4504,1.009 14.1148,0 10.2476,-4.2448 24.74,-10.2476 z" style="fill:#ff3300;stroke:none;stroke-width:8.90946102;stroke-miterlimit:10;stroke-dasharray:none"/>
        </g>
        <g id="g8267-8-77-6-6-4-3" style="color-interpolation:linearRGB;fill:#ff3300;stroke-width:8.90946102;stroke-miterlimit:10;stroke-dasharray:none;color-rendering:optimizeQuality;image-rendering:optimizeQuality;text-rendering:geometricPrecision">
          <path inkscape:connector-curvature="0" id="path8269-1-1-4-1-7-6" style="fill:#ff3300;fill-rule:evenodd;stroke-width:8.90946102;stroke-miterlimit:10;stroke-dasharray:none" d="m 184.0097,350.696 10.2476,-4.2448 24.74,-10.2476 1.0089,-0.4504 0,-6.9958 -10.2476,-24.74 -42.4471,-102.4764 -4.2447,-10.2476 -0.4504,-1.0089 -14.1149,0 0,0 -10.2476,4.2447 -24.74,10.2476 -1.0089,0.4504 0,6.9959 10.2476,24.7399 42.4472,102.4764 4.2447,10.2476 0.4504,1.009 14.1148,0 0,0"/>
        </g>
        <g id="g8271-1-5-9-2-1-6" style="color-interpolation:sRGB;fill:#ff3300;stroke:#ff0000;stroke-width:8.90946102;stroke-miterlimit:10;stroke-dasharray:none;color-rendering:optimizeSpeed;image-rendering:optimizeSpeed;shape-rendering:crispEdges;text-rendering:optimizeSpeed">
          <path inkscape:connector-curvature="0" id="path8273-6-6-0-2-1-5" d="m 321.3029,365.2793 4.2448,-10.2476 0.3949,-1.0319 -4.9468,-4.9468 -24.74,-10.2476 -102.4764,-42.4471 -10.2476,-4.2447 -1.0319,-0.3949 -9.9807,9.9806 -10.2476,24.74 -4.2447,10.2477 -0.3949,1.0318 4.9468,4.9468 24.7399,10.2477 102.4764,42.4471 10.2476,4.2447 1.0319,0.3949 9.9807,-9.9807 z" style="fill:#ff3300;stroke:none;stroke-width:8.90946102;stroke-miterlimit:10;stroke-dasharray:none"/>
        </g>
        <g id="g8275-6-43-4-4-3-9" style="color-interpolation:linearRGB;fill:#ff3300;stroke-width:8.90946102;stroke-miterlimit:10;stroke-dasharray:none;color-rendering:optimizeQuality;image-rendering:optimizeQuality;text-rendering:geometricPrecision">
          <path inkscape:connector-curvature="0" id="path8277-9-22-4-8-5-2" style="fill:#ff3300;fill-rule:evenodd;stroke-width:8.90946102;stroke-miterlimit:10;stroke-dasharray:none" d="m 301.0746,400 9.9807,-9.9807 10.2476,-24.74 4.2448,-10.2476 0.3949,-1.0319 -4.9468,-4.9468 -24.74,-10.2476 -102.4764,-42.4471 -10.2476,-4.2447 -1.0319,-0.3949 0,0 -9.9807,9.9806 -10.2476,24.74 -4.2447,10.2477 -0.3949,1.0318 4.9468,4.9468 24.7399,10.2477 102.4764,42.4471 10.2476,4.2447 1.0319,0.3949 0,0"/>
        </g>
        <g id="g8279-3-5-2-6-3-0" style="color-interpolation:sRGB;fill:#ff3300;stroke:#ff0000;stroke-width:8.90946102;stroke-miterlimit:10;stroke-dasharray:none;color-rendering:optimizeSpeed;image-rendering:optimizeSpeed;shape-rendering:crispEdges;text-rendering:optimizeSpeed">
          <path inkscape:connector-curvature="0" id="path8281-1-2-9-8-0-3" d="m 417.4394,346.8003 10.2476,-4.2448 1.009,-0.4504 0,-14.1148 -10.2477,-24.74 -4.2447,-10.2476 -0.4504,-1.0089 -6.9958,0 -102.4764,42.4471 -24.74,10.2476 -10.2476,4.2447 -1.0089,0.4504 0,14.1149 10.2476,24.74 4.2447,10.2476 0.4504,1.0089 6.9959,0 102.4763,-42.4471 z" style="fill:#ff3300;stroke:none;stroke-width:8.90946102;stroke-miterlimit:10;stroke-dasharray:none"/>
        </g>
        <g id="g8283-3-07-4-0-5-1" style="color-interpolation:linearRGB;fill:#ff3300;stroke-width:8.90946102;stroke-miterlimit:10;stroke-dasharray:none;color-rendering:optimizeQuality;image-rendering:optimizeQuality;text-rendering:geometricPrecision">
          <path inkscape:connector-curvature="0" id="path8285-3-5-1-5-5-8" style="fill:#ff3300;fill-rule:evenodd;stroke-width:8.90946102;stroke-miterlimit:10;stroke-dasharray:none" d="m 290.2231,399.495 102.4763,-42.4471 24.74,-10.2476 10.2476,-4.2448 1.009,-0.4504 0,-14.1148 -10.2477,-24.74 -4.2447,-10.2476 -0.4504,-1.0089 -6.9958,0 0,0 -102.4764,42.4471 -24.74,10.2476 -10.2476,4.2447 -1.0089,0.4504 0,14.1149 10.2476,24.74 4.2447,10.2476 0.4504,1.0089 6.9959,0 0,0"/>
        </g>
        <g id="g8287-0-5-6-6-4-0" style="color-interpolation:sRGB;fill:#ff3300;stroke:#ff0000;stroke-width:8.90946102;stroke-miterlimit:10;stroke-dasharray:none;color-rendering:optimizeSpeed;image-rendering:optimizeSpeed;shape-rendering:crispEdges;text-rendering:optimizeSpeed">
          <path inkscape:connector-curvature="0" id="path8289-9-8-3-9-2-1" d="m 379.6993,339.4808 10.2477,4.2447 24.74,10.2476 1.0318,0.3949 4.9468,-4.9467 10.2477,-24.74 42.4471,-102.4764 4.2447,-10.2476 0.3949,-1.0319 -9.9807,-9.9807 -10.2476,-4.2447 -24.74,-10.2477 -1.0319,-0.3949 -4.9468,4.9468 -10.2476,24.74 -42.4471,102.4764 -4.2447,10.2476 -0.3949,1.0319 z" style="fill:#ff3300;stroke:none;stroke-width:8.90946102;stroke-miterlimit:10;stroke-dasharray:none"/>
        </g>
        <g id="g8291-1-86-1-3-2-8" style="color-interpolation:linearRGB;fill:#ff3300;stroke-width:8.90946102;stroke-miterlimit:10;stroke-dasharray:none;color-rendering:optimizeQuality;image-rendering:optimizeQuality;text-rendering:geometricPrecision">
          <path inkscape:connector-curvature="0" id="path8293-6-2-0-6-6-9" style="fill:#ff3300;fill-rule:evenodd;stroke-width:8.90946102;stroke-miterlimit:10;stroke-dasharray:none" d="m 415.7188,354.368 4.9468,-4.9467 10.2477,-24.74 42.4471,-102.4764 4.2447,-10.2476 0.3949,-1.0319 -9.9807,-9.9807 -10.2476,-4.2447 -24.74,-10.2477 -1.0319,-0.3949 0,0 -4.9468,4.9468 -10.2476,24.74 -42.4471,102.4764 -4.2447,10.2476 -0.3949,1.0319 9.9806,9.9807 10.2477,4.2447 24.74,10.2476 1.0318,0.3949 0,0"/>
        </g>
      </g>
    </g>
  </g>
</svg>