<?xml version="1.0" encoding="UTF-8" standalone="no"?>
<svg
   xmlns:dc="http://purl.org/dc/elements/1.1/"
   xmlns:cc="http://creativecommons.org/ns#"
   xmlns:rdf="http://www.w3.org/1999/02/22-rdf-syntax-ns#"
   xmlns:svg="http://www.w3.org/2000/svg"
   xmlns="http://www.w3.org/2000/svg"
   xmlns:sodipodi="http://sodipodi.sourceforge.net/DTD/sodipodi-0.dtd"
   xmlns:inkscape="http://www.inkscape.org/namespaces/inkscape"
   style="fill-opacity:1; color-rendering:auto; color-interpolation:auto; text-rendering:auto; stroke:black; stroke-linecap:square; stroke-miterlimit:10; shape-rendering:auto; stroke-opacity:1; fill:black; stroke-dasharray:none; font-weight:normal; stroke-width:1; font-family:'Dialog'; font-style:normal; stroke-linejoin:miter; font-size:12px; stroke-dashoffset:0; image-rendering:auto;"
   width="240"
   height="200"
   id="svg4303"
   version="1.1"
   inkscape:version="0.91 r13725"
   sodipodi:docname="HybridSystem.svg">
  <metadata
     id="metadata4430">
    <rdf:RDF>
      <cc:Work
         rdf:about="">
        <dc:format>image/svg+xml</dc:format>
        <dc:type
           rdf:resource="http://purl.org/dc/dcmitype/StillImage" />
      </cc:Work>
    </rdf:RDF>
  </metadata>
  <sodipodi:namedview
     pagecolor="#ffffff"
     bordercolor="#666666"
     borderopacity="1"
     objecttolerance="10"
     gridtolerance="10"
     guidetolerance="10"
     inkscape:pageopacity="0"
     inkscape:pageshadow="2"
     inkscape:window-width="1855"
     inkscape:window-height="1056"
     id="namedview4428"
     showgrid="false"
     inkscape:zoom="1.6245778"
     inkscape:cx="104.65724"
     inkscape:cy="100"
     inkscape:window-x="65"
     inkscape:window-y="24"
     inkscape:window-maximized="1"
     inkscape:current-layer="svg4303" />
  <!--Generated by the Batik Graphics2D SVG Generator-->
  <defs
     id="genericDefs">
    <clipPath
       clipPathUnits="userSpaceOnUse"
       id="clipPath4434">
      <rect
         style="fill:none;stroke:#0000ff;stroke-width:0;stroke-miterlimit:4;stroke-dasharray:none"
         id="rect4436"
         width="170.21312"
         height="138.87473"
         x="30.88908"
         y="19.572432" />
    </clipPath>
  </defs>
  <g
     id="g4306"
     clip-path="url(#clipPath4434)"
     transform="translate(0.61554453,0.61554453)"
     inkscape:export-xdpi="97.209915"
     inkscape:export-ydpi="97.209915">
    <defs
       id="defs1">
      <clipPath
         clipPathUnits="userSpaceOnUse"
         id="clipPath1">
        <path
           d="M 0,0 240,0 240,200 0,200 0,0 Z"
           id="path4310"
           inkscape:connector-curvature="0" />
      </clipPath>
    </defs>
    <g
       style="fill:#ffffff;stroke:#ffffff"
       id="g4312">
      <rect
         x="0"
         y="0"
         width="240"
         style="stroke:none"
         height="200"
         id="rect4314"
         clip-path="url(#clipPath1)" />
    </g>
    <g
       style="color-interpolation:sRGB;fill:#ffffff;stroke:#ffffff;color-rendering:optimizeSpeed;image-rendering:optimizeSpeed;shape-rendering:crispEdges;text-rendering:optimizeSpeed"
       id="g4316">
      <rect
         x="0"
         width="240"
         height="200"
         y="0"
         style="stroke:none"
         id="rect4318" />
    </g>
    <g
       style="color-interpolation:linearRGB;fill:#0000ff;stroke:#0000ff;stroke-width:0.66670001;stroke-linecap:butt;stroke-linejoin:round;color-rendering:optimizeQuality;image-rendering:optimizeQuality;text-rendering:geometricPrecision"
       id="g4320">
      <path
         d="m 175.9618,89.0101 15.5,0 0.3875,0 0.4752,0 0.3875,-1.63 1.9007,-7.9951 0,0 -15.5,0 -0.3875,0 -0.4752,0 -0.3875,1.63 -1.9007,7.9951"
         style="fill:none;fill-rule:evenodd"
         id="path4322"
         inkscape:connector-curvature="0" />
      <path
         d="m 169.8723,97.0053 15.5,0 0.3875,0 0.4751,0 1.1625,-1.63 5.7021,-7.9952 0,0 -15.5,0 -0.3875,0 -0.4752,0 -1.1625,1.63 -5.702,7.9952"
         style="fill:none;fill-rule:evenodd"
         id="path4324"
         inkscape:connector-curvature="0" />
      <path
         d="m 159.9813,105.0005 15.5,0 0.3875,0 0.4752,0 1.9375,-1.63 9.5034,-7.9952 0,0 -15.5,0 -0.3875,0 -0.4751,0 -1.9375,1.63 -9.5035,7.9952"
         style="fill:none;fill-rule:evenodd"
         id="path4326"
         inkscape:connector-curvature="0" />
      <path
         d="m 146.289,112.9956 15.5,0 0.3875,0 0.4752,0 2.7125,-1.63 13.3048,-7.9951 0,0 -15.5,0 -0.3875,0 -0.4752,0 -2.7125,1.63 -13.3048,7.9951"
         style="fill:none;fill-rule:evenodd"
         id="path4328"
         inkscape:connector-curvature="0" />
      <path
         d="m 128.7953,120.9908 15.5,0 0.3875,0 0.4752,0 3.4875,-1.6301 17.1062,-7.9951 0,0 -15.5,0 -0.3875,0 -0.4752,0 -3.4875,1.63 -17.1062,7.9952"
         style="fill:none;fill-rule:evenodd"
         id="path4330"
         inkscape:connector-curvature="0" />
      <path
         d="m 107.5003,128.9859 15.5,0 0.3875,0 0.4751,0 4.2625,-1.63 20.9076,-7.9952 0,0 -15.5,0 -0.3875,0 -0.4752,0 -4.2625,1.6301 -20.9075,7.9951"
         style="fill:none;fill-rule:evenodd"
         id="path4332"
         inkscape:connector-curvature="0" />
      <path
         d="m 82.4038,136.981 15.5,0 0.3875,0 0.4752,0 5.0375,-1.6299 24.7089,-7.9952 0,0 -15.5,0 -0.3875,0 -0.4752,0 -5.0375,1.63 -24.7089,7.9951"
         style="fill:none;fill-rule:evenodd"
         id="path4334"
         inkscape:connector-curvature="0" />
      <path
         d="m 53.506,144.9762 15.5,0 0.3875,0 0.4752,0 5.8125,-1.63 28.5103,-7.9951 0,0 -15.5,0 -0.3875,0 -0.4752,0 -5.8125,1.6299 -28.5103,7.9952"
         style="fill:none;fill-rule:evenodd"
         id="path4336"
         inkscape:connector-curvature="0" />
      <path
         d="m 30.9778,152.9713 5.329,0 0.3875,0 0.4752,0 6.5875,-1.6299 32.3117,-7.9952 0,0 -15.5,0 -0.3875,0 -0.4752,0 -6.5875,1.63 -22.1407,5.4785"
         style="fill:none;fill-rule:evenodd"
         id="path4338"
         inkscape:connector-curvature="0" />
      <path
         d="m 30.9778,154.2563 13.1667,-2.9149 0,0 -13.1667,0"
         style="fill:none;fill-rule:evenodd"
         id="path4340"
         inkscape:connector-curvature="0" />
      <path
         d="m 54.8239,35.6877 0,0 0.4752,0 0.7594,-3.1944 0,0 -23.8239,-7.9951 -0.7594,0 0,0 0,0 -0.4752,0 -0.0222,0.0932"
         style="fill:none;fill-rule:evenodd"
         id="path4342"
         inkscape:connector-curvature="0" />
      <path
         d="m 30.9778,27.9399 23.0867,7.7478 0.7594,0"
         style="fill:none;fill-rule:evenodd"
         id="path4344"
         inkscape:connector-curvature="0" />
      <path
         d="m 74.0871,43.6828 0,0 0.4751,0 2.2782,-3.1943 0,0 -20.0225,-7.9952 -0.7594,0 0,0 0,0 -0.4752,0 -2.2782,3.1944 0,0 20.0226,7.9951 0.7594,0"
         style="fill:none;fill-rule:evenodd"
         id="path4346"
         inkscape:connector-curvature="0" />
      <path
         d="m 89.5489,51.678 0,0 0.4751,0 3.797,-3.1944 0,0 -16.2212,-7.9951 -0.7594,0 0,0 0,0 -0.4752,0 -3.7969,3.1943 0,0 16.2212,7.9952 0.7594,0"
         style="fill:none;fill-rule:evenodd"
         id="path4348"
         inkscape:connector-curvature="0" />
      <path
         d="m 101.2093,59.6731 0,0 0.4751,0 5.3158,-3.1943 0,0 -12.4198,-7.9952 -0.7594,0 0,0 0,0 -0.4752,0 -5.3157,3.1944 0,0 12.4198,7.9951 0.7594,0"
         style="fill:none;fill-rule:evenodd"
         id="path4350"
         inkscape:connector-curvature="0" />
      <path
         d="m 109.0683,67.6683 0,0 0.4751,0 6.8346,-3.1944 0,0 -8.6184,-7.9951 -0.7594,0 0,0 0,0 -0.4752,0 -6.8345,3.1943 0,0 8.6184,7.9952 0.7594,0"
         style="fill:none;fill-rule:evenodd"
         id="path4352"
         inkscape:connector-curvature="0" />
      <path
         d="m 113.1259,75.6634 0,0 0.4752,0 8.3533,-3.1943 0,0 -4.817,-7.9952 -0.7594,0 0,0 0,0 -0.4752,0 -8.3533,3.1944 0,0 4.817,7.9951 0.7594,0"
         style="fill:none;fill-rule:evenodd"
         id="path4354"
         inkscape:connector-curvature="0" />
      <path
         d="m 113.3822,83.6586 0,0 0.4752,0 9.8721,-3.1944 0,0 -1.0157,-7.9951 -0.7594,0 0,0 0,0 -0.4752,0 -9.8721,3.1943 0,0 1.0157,7.9952 0.7594,0"
         style="fill:none;fill-rule:evenodd"
         id="path4356"
         inkscape:connector-curvature="0" />
      <path
         d="m 109.8371,91.6537 0,0 0.4752,0 11.3909,-3.1943 0,0 2.7857,-7.9952 -0.7594,0 0,0 0,0 -0.4752,0 -11.3909,3.1944 0,0 -2.7857,7.9951 0.7594,0"
         style="fill:none;fill-rule:evenodd"
         id="path4358"
         inkscape:connector-curvature="0" />
      <path
         d="m 102.4906,99.6489 0,0 0.4752,0 12.9097,-3.1944 0,0 6.5871,-7.9951 -0.7594,0 0,0 0,0 -0.4752,0 -12.9097,3.1943 0,0 -6.587,7.9952 0.7593,0"
         style="fill:none;fill-rule:evenodd"
         id="path4360"
         inkscape:connector-curvature="0" />
      <path
         d="m 91.3428,107.644 0,0 0.4752,0 14.4284,-3.1943 0,0 10.3885,-7.9952 -0.7594,0 0,0 0,0 -0.4752,0 -14.4284,3.1944 0,0 -10.3885,7.9951 0.7594,0"
         style="fill:none;fill-rule:evenodd"
         id="path4362"
         inkscape:connector-curvature="0" />
      <path
         d="m 76.3936,115.6392 0,0 0.4751,0 0,0 15.9473,-3.1944 14.1898,-7.9951 -0.7594,0 0,0 0,0 -0.4752,0 0,0 -15.9472,3.1943 -14.1898,7.9952 0.7594,0"
         style="fill:none;fill-rule:evenodd"
         id="path4364"
         inkscape:connector-curvature="0" />
      <path
         d="m 57.643,123.6343 0,0 0.4751,0 0,0 17.4661,-3.1943 17.9912,-7.9952 -0.7594,0 0,0 0,0 -0.4752,0 0,0 -17.466,3.1944 -17.9912,7.9951 0.7594,0"
         style="fill:none;fill-rule:evenodd"
         id="path4366"
         inkscape:connector-curvature="0" />
      <path
         d="m 35.091,131.6295 0,0 0.4752,0 0,0 18.9848,-3.1944 21.7926,-7.9951 -0.7594,0 0,0 0,0 -0.4752,0 0,0 -18.9848,3.1943 -21.7926,7.9952 0.7594,0"
         style="fill:none;fill-rule:evenodd"
         id="path4368"
         inkscape:connector-curvature="0" />
      <path
         d="m 30.9778,136.0362 24.3326,-7.6011 -0.7594,0 0,0 0,0 -0.4752,0 0,0 -20.5036,3.1944 -2.5944,0.8104"
         style="fill:none;fill-rule:evenodd"
         id="path4370"
         inkscape:connector-curvature="0" />
      <path
         d="m 48.3571,49.1 0,0 0.4752,0 0.6695,-2.8166 0,0 -17.3571,-7.9951 -0.6695,0 0,0 0,0 -0.4752,0 -0.0222,0.0933"
         style="fill:none;fill-rule:evenodd"
         id="path4372"
         inkscape:connector-curvature="0" />
      <path
         d="m 30.9778,41.403 16.7097,7.697 0.6696,0"
         style="fill:none;fill-rule:evenodd"
         id="path4374"
         inkscape:connector-curvature="0" />
      <path
         d="m 61.2432,57.0951 0,0 0.4752,0 0,0 2.0087,-2.8165 -13.5557,-7.9952 -0.6696,0 0,0 0,0 -0.4751,0 0,0 -2.0088,2.8166 13.5557,7.9951 0.6696,0"
         style="fill:none;fill-rule:evenodd"
         id="path4376"
         inkscape:connector-curvature="0" />
      <path
         d="m 70.328,65.0903 0,0 0.4751,0 3.3479,-2.8166 0,0 -9.7543,-7.9951 -0.6696,0 0,0 0,0 -0.4752,0 -3.3478,2.8165 0,0 9.7543,7.9952 0.6696,0"
         style="fill:none;fill-rule:evenodd"
         id="path4378"
         inkscape:connector-curvature="0" />
      <path
         d="m 75.6114,73.0854 0,0 0.4751,0 4.6871,-2.8165 0,0 -5.953,-7.9952 -0.6696,0 0,0 0,0 -0.4752,0 -4.687,2.8166 0,0 5.953,7.9951 0.6696,0"
         style="fill:none;fill-rule:evenodd"
         id="path4380"
         inkscape:connector-curvature="0" />
      <path
         d="m 77.0934,81.0806 0,0 0.4751,0 6.0262,-2.8166 0,0 -2.1516,-7.9951 -0.6695,0 0,0 0,0 -0.4752,0 -6.0262,2.8165 0,0 2.1516,7.9952 0.6696,0"
         style="fill:none;fill-rule:evenodd"
         id="path4382"
         inkscape:connector-curvature="0" />
      <path
         d="m 74.774,89.0757 0,0 0.4752,0 7.3653,-2.8165 0,0 1.6498,-7.9952 -0.6696,0 0,0 0,0 -0.4752,0 -7.3653,2.8166 0,0 -1.6498,7.9951 0.6696,0"
         style="fill:none;fill-rule:evenodd"
         id="path4384"
         inkscape:connector-curvature="0" />
      <path
         d="m 68.6533,97.0709 0,0 0.4751,0 8.7045,-2.8166 0,0 5.4512,-7.9951 -0.6696,0 0,0 0,0 -0.4752,0 -8.7044,2.8165 0,0 -5.4512,7.9952 0.6696,0"
         style="fill:none;fill-rule:evenodd"
         id="path4386"
         inkscape:connector-curvature="0" />
      <path
         d="m 58.7311,105.066 0,0 0.4752,0 10.0436,-2.8165 0,0 9.2526,-7.9952 -0.6696,0 0,0 0,0 -0.4752,0 -10.0436,2.8166 0,0 -9.2525,7.9951 0.6695,0"
         style="fill:none;fill-rule:evenodd"
         id="path4388"
         inkscape:connector-curvature="0" />
      <path
         d="m 45.0077,113.0612 0,0 0.4751,0 11.3828,-2.8166 0,0 13.0539,-7.9951 -0.6696,0 0,0 0,0 -0.4751,0 -11.3828,2.8165 0,0 -13.0539,7.9952 0.6696,0"
         style="fill:none;fill-rule:evenodd"
         id="path4390"
         inkscape:connector-curvature="0" />
      <path
         d="m 30.9778,120.3877 9.7021,-2.1479 0,0 16.8553,-7.9952 -0.6696,0 0,0 0,0 -0.4752,0 -12.7219,2.8166 0,0 -12.6907,6.0197"
         style="fill:none;fill-rule:evenodd"
         id="path4392"
         inkscape:connector-curvature="0" />
      <path
         d="m 30.9778,122.2541 10.3717,-4.0143 -0.6696,0 0,0 0,0 -0.4752,0 -9.2269,1.8482"
         style="fill:none;fill-rule:evenodd"
         id="path4394"
         inkscape:connector-curvature="0" />
      <path
         d="m 43.4709,59.5713 0,0 0.4751,0 0.7621,-3.2055 0,0 -12.4709,-7.9951 -0.762,0 0,0 0,0 -0.4752,0 -0.0222,0.0932"
         style="fill:none;fill-rule:evenodd"
         id="path4396"
         inkscape:connector-curvature="0" />
      <path
         d="m 30.9778,52.0505 11.731,7.5208 0.7621,0"
         style="fill:none;fill-rule:evenodd"
         id="path4398"
         inkscape:connector-curvature="0" />
      <path
         d="m 51.3783,67.5665 0,0 0.4752,0 2.2861,-3.2056 0,0 -8.6695,-7.9951 -0.762,0 0,0 0,0 -0.4752,0 -2.2861,3.2055 0,0 8.6694,7.9952 0.7621,0"
         style="fill:none;fill-rule:evenodd"
         id="path4400"
         inkscape:connector-curvature="0" />
      <path
         d="m 55.4843,75.5616 0,0 0.4752,0 3.8102,-3.2055 0,0 -4.8681,-7.9952 -0.762,0 0,0 0,0 -0.4752,0 -3.8102,3.2056 0,0 4.8681,7.9951 0.762,0"
         style="fill:none;fill-rule:evenodd"
         id="path4402"
         inkscape:connector-curvature="0" />
      <path
         d="m 55.789,83.5568 0,0 0.4752,0 5.3343,-3.2056 0,0 -1.0667,-7.9951 -0.7621,0 0,0 0,0 -0.4751,0 -5.3343,3.2055 0,0 1.0667,7.9952 0.762,0"
         style="fill:none;fill-rule:evenodd"
         id="path4404"
         inkscape:connector-curvature="0" />
    </g>
    <g
       style="color-interpolation:sRGB;fill:#ffffff;stroke:#ffffff;color-rendering:optimizeSpeed;image-rendering:optimizeSpeed;shape-rendering:crispEdges;text-rendering:optimizeSpeed"
       id="g4406">
      <path
         style="stroke:none"
         d="m 193.75,81.015 0,-1.63 -15.5,0 0,1.63 z"
         id="path4408"
         inkscape:connector-curvature="0" />
    </g>
    <g
       style="color-interpolation:linearRGB;stroke-width:0.66670001;color-rendering:optimizeQuality;image-rendering:optimizeQuality;text-rendering:geometricPrecision"
       id="g4410">
      <path
         d="m 178.25,81.015 15.5,0 0,-1.63 0,0 -15.5,0 0,1.63 0,0"
         style="fill:none;fill-rule:evenodd"
         id="path4412"
         inkscape:connector-curvature="0" />
      <path
         d="m 186,80.2 0,0 0,0 0,0 0,0"
         style="fill:none;fill-rule:evenodd;stroke-linecap:butt;stroke-linejoin:round"
         id="path4414"
         inkscape:connector-curvature="0" />
      <path
         d="m 186,80.2 0,8e-4 0,9e-4 0,8e-4 0,8e-4 0,0.0041 0,0.0041 0,0.0041 0,0.0041 0,0.0204 -1e-4,0.0205 -1e-4,0.0205 -1e-4,0.0205 -9e-4,0.1023 -0.002,0.1024 -0.002,0.1023 -0.003,0.1024 -0.0233,0.5118 -0.0389,0.5118 -0.0545,0.5118 -0.0701,0.5118 -0.584,2.559 -0.9734,2.559 -1.3629,2.5589 -1.7523,2.559 -6.5439,6.7959 -9.2903,6.7959 -12.0369,6.7959 -14.7834,6.7958 -17.5298,6.7959 -20.2763,6.7959 -23.0229,6.7959 -25.7693,6.7958 -5.0784,1.2597 -5.1729,1.2598 -5.2671,1.2597 L 31,152.4"
         style="fill:none;fill-rule:evenodd;stroke-linecap:butt;stroke-linejoin:round"
         id="path4416"
         inkscape:connector-curvature="0" />
      <path
         d="m 31,26.05 0.0078,0.0024 0.0078,0.0024 0.0078,0.0025 0.0077,0.0024 0.039,0.0121 0.0389,0.0121 0.0389,0.0121 0.0389,0.012 0.1943,0.0605 0.1942,0.0605 0.1939,0.0604 0.1937,0.0605 0.9652,0.3022 0.9599,0.3023 0.9543,0.3022 0.949,0.3023 4.6632,1.5113 4.5275,1.5113 4.3916,1.5114 4.2557,1.5113 13.089,4.9909 11.6077,4.9908 10.1265,4.9909 8.6451,4.9909 7.1638,4.9909 5.6825,4.9908 4.2013,4.9909 2.7199,4.9909 0.5786,1.6672 0.4132,1.6672 0.248,1.6672 0.0826,1.6672"
         style="fill:none;fill-rule:evenodd;stroke-linecap:butt;stroke-linejoin:round"
         id="path4418"
         inkscape:connector-curvature="0" />
      <path
         d="m 118.1875,80.2 0,8e-4 0,9e-4 0,8e-4 0,8e-4 0,0.0041 0,0.0041 0,0.0041 0,0.0041 0,0.0204 -1e-4,0.0205 -1e-4,0.0205 -10e-5,0.0205 -9e-4,0.1023 -0.002,0.1024 -0.002,0.1023 -0.003,0.1024 -0.0233,0.5118 -0.0389,0.5118 -0.0545,0.5118 -0.0701,0.5118 -0.584,2.559 -0.9734,2.559 -1.3629,2.5589 -1.7523,2.559 -3.1606,3.6371 -3.9474,3.6372 -4.734,3.6371 -5.5207,3.6371 -6.3074,3.6372 -7.0941,3.6371 -7.8808,3.6371 -8.6675,3.6371 -7.9141,3.0648 -8.4727,3.0647 -9.0312,3.0647 L 31,134.35"
         style="fill:none;fill-rule:evenodd;stroke-linecap:butt;stroke-linejoin:round"
         id="path4420"
         inkscape:connector-curvature="0" />
      <path
         d="m 31,39.5875 0.0078,0.0032 0.0078,0.0033 0.0078,0.0032 0.0077,0.0032 0.039,0.0161 0.0389,0.0161 0.0388,0.0162 0.0389,0.0161 0.1941,0.0806 0.1937,0.0806 0.1934,0.0806 0.1929,0.0806 0.959,0.403 0.9492,0.403 0.9397,0.4031 0.9299,0.403 4.505,2.0151 4.2635,2.0151 4.022,2.015 3.7805,2.0151 3.992,2.2834 3.6819,2.2834 3.3719,2.2834 3.0619,2.2834 2.7517,2.2833 2.4418,2.2834 2.1316,2.2834 1.8216,2.2834 1.5116,2.2833 1.2015,2.2834 0.8914,2.2834 0.5814,2.2834 0.1282,0.7849 0.0916,0.7849 0.055,0.785 0.0183,0.7849"
         style="fill:none;fill-rule:evenodd;stroke-linecap:butt;stroke-linejoin:round"
         id="path4422"
         inkscape:connector-curvature="0" />
      <path
         d="m 80.043,80.2 0,8e-4 0,9e-4 0,8e-4 0,8e-4 0,0.0041 0,0.0041 0,0.0041 0,0.0041 -1e-4,0.0204 0,0.0205 -1e-4,0.0205 -1e-4,0.0205 -10e-4,0.1023 -0.0015,0.1024 -0.0022,0.1023 -0.0028,0.1024 -0.0233,0.5118 -0.039,0.5118 -0.0545,0.5118 -0.07,0.5118 -0.2407,1.268 -0.3364,1.2681 -0.432,1.2681 -0.5276,1.268 -0.6232,1.2681 -0.7188,1.2681 -0.8145,1.268 -0.9101,1.2681 -1.0057,1.2681 -1.1014,1.268 -1.197,1.2681 -1.2926,1.2681 -1.3882,1.268 -1.4838,1.2681 -1.5795,1.2681 -1.6751,1.268 -1.7707,1.2681 -1.8664,1.2681 -1.962,1.268 -2.0576,1.2681 -2.1532,1.2681 -2.2488,1.268 -2.3445,1.2681 -2.4401,1.2681 -2.5357,1.268 -2.6314,1.2681 -2.7269,1.2681 -2.8226,1.268 -1.4543,0.6371 -1.4784,0.6372 -1.5025,0.6371 L 31,120.8125"
         style="fill:none;fill-rule:evenodd;stroke-linecap:butt;stroke-linejoin:round"
         id="path4424"
         inkscape:connector-curvature="0" />
      <path
         d="m 31,49.7406 0.0078,0.0043 0.0078,0.0043 0.0078,0.0043 0.0077,0.0043 0.0389,0.0215 0.0389,0.0215 0.0389,0.0215 0.0388,0.0215 0.1936,0.1075 0.193,0.1074 0.1923,0.1075 0.1916,0.1075 0.4479,0.2527 0.4442,0.2528 0.4403,0.2528 0.4365,0.2527 0.4327,0.2528 0.429,0.2527 0.4251,0.2528 0.4213,0.2527 0.4175,0.2528 0.4138,0.2527 0.4099,0.2528 0.4061,0.2527 0.4023,0.2528 0.3986,0.2527 0.3947,0.2528 0.3909,0.2528 0.3872,0.2527 0.3833,0.2528 0.3796,0.2527 0.3757,0.2528 0.3719,0.2527 0.3682,0.2528 0.3643,0.2527 0.3605,0.2528 0.3568,0.2527 0.3529,0.2528 0.3492,0.2527 0.3453,0.2528 0.3416,0.2528 0.3377,0.2527 0.334,0.2528 0.3301,0.2527 0.3263,0.2528 0.3226,0.2527 0.3187,0.2528 0.315,0.2527 0.1476,0.1195 0.1467,0.1195 0.1459,0.1195 0.145,0.1195"
         style="fill:none;fill-rule:evenodd;stroke-linecap:butt;stroke-linejoin:round"
         id="path4426"
         inkscape:connector-curvature="0" />
    </g>
  </g>
</svg>
