<?xml version="1.0" encoding="UTF-8" standalone="no"?>
<svg
   xmlns:dc="http://purl.org/dc/elements/1.1/"
   xmlns:cc="http://creativecommons.org/ns#"
   xmlns:rdf="http://www.w3.org/1999/02/22-rdf-syntax-ns#"
   xmlns:svg="http://www.w3.org/2000/svg"
   xmlns="http://www.w3.org/2000/svg"
   viewBox="0 0 222.66667 69.33336"
   height="39.5200"
   width="126.9200"
   xml:space="preserve"
   id="svg2"
   version="1.1"><metadata
     id="metadata8"><rdf:RDF><cc:Work
         rdf:about=""><dc:format>image/svg+xml</dc:format><dc:type
           rdf:resource="http://purl.org/dc/dcmitype/StillImage" /></cc:Work></rdf:RDF></metadata><defs
     id="defs6" /><g
     transform="matrix(1.3333333,0,0,-1.3333333,0,69.333333)"
     id="g10"><g
       transform="scale(0.1)"
       id="g12"><path
         id="path14"
         style="fill:#ffffff;stroke:#000000;stroke-width:12;stroke-linecap:butt;stroke-linejoin:miter;stroke-miterlimit:4;stroke-dasharray:none;stroke-opacity:1"
         d="m 324.102,148.297 c 3.828,0 7.378,-0.738 10.628,-2.188 3.321,-1.48 6.25,-3.402 8.75,-5.781 2.5,-2.422 4.45,-5.308 5.93,-8.75 1.449,-3.359 2.192,-6.871 2.192,-10.621 0,-7.309 -2.891,-13.867 -8.59,-19.687 -38.442,-30.7427 -81.84,-46.102 -130.16,-46.102 -57.301,0 -106.09,20.1992 -146.4028,60.629 -40.4297,40.312 -60.62889,89.101 -60.62889,146.41 0,57.07 20.19919,105.82 60.62889,146.25 40.4998,40.5 89.2888,60.781 146.4028,60.781 49.058,0 93.32,-16.172 132.808,-48.441 4.77,-4.609 7.192,-10.899 7.192,-18.91 0,-3.981 -0.704,-7.61 -2.032,-10.93 -1.371,-3.25 -3.281,-6.098 -5.781,-8.598 -2.5,-2.5 -5.469,-4.453 -8.91,-5.781 -3.359,-1.371 -6.867,-2.031 -10.617,-2.031 -6.801,0 -13.09,2.582 -18.91,7.812 -13.122,10.309 -27.622,18.207 -43.442,23.75 -15.738,5.508 -32.5,8.278 -50.308,8.278 -42.114,0 -78.051,-14.957 -107.813,-44.84 -29.6093,-29.488 -44.3788,-65.27 -44.3788,-107.34 0,-42.309 14.7695,-78.207 44.3788,-107.66 29.57,-29.688 65.512,-44.527 107.813,-44.527 36.019,0 67.808,11.128 95.308,33.437 4.461,3.121 9.77,4.723 15.942,4.84 z" /><path
         id="path16"
         style="fill:#ffffff;stroke:#000000;stroke-width:12;stroke-linecap:butt;stroke-linejoin:miter;stroke-miterlimit:4;stroke-dasharray:none;stroke-opacity:1"
         d="m 1071.05,414.387 v -144.68 h 72.5 c 10,0 19.38,1.871 28.13,5.621 8.83,3.828 16.48,9.059 22.97,15.629 6.44,6.641 11.56,14.371 15.31,23.121 3.83,8.75 5.78,18.012 5.78,27.809 0,10 -1.95,19.383 -5.78,28.133 -3.75,8.828 -8.91,16.558 -15.47,23.117 -6.56,6.57 -14.22,11.722 -22.97,15.472 -8.75,3.829 -18.08,5.778 -27.97,5.778 z M 1016.21,82.668 v 359.07 c 0,3.828 0.67,7.418 2.03,10.782 1.45,3.32 3.44,6.25 5.94,8.75 2.5,2.578 5.35,4.57 8.59,5.937 3.32,1.32 6.96,2.031 10.94,2.031 h 99.84 c 17.39,0 33.79,-3.398 49.22,-10.16 15.51,-6.68 28.99,-15.781 40.47,-27.34 11.45,-11.57 20.51,-25.121 27.19,-40.629 6.76,-15.429 10.16,-31.832 10.16,-49.222 0,-11.36 -1.41,-22.457 -4.22,-33.278 -2.82,-10.742 -7.03,-20.902 -12.66,-30.472 -5.62,-9.61 -12.66,-18.508 -21.09,-26.707 -8.36,-8.133 -18.05,-15.321 -29.07,-21.571 l 82.66,-132.191 c 2.89,-4.918 4.38,-9.918 4.38,-15 0,-4.0586 -0.75,-7.7305 -2.19,-10.9297 -1.37,-3.2383 -3.28,-6.1016 -5.78,-8.6016 -2.5,-2.5 -5.43,-4.4883 -8.75,-5.9297 -3.36,-1.3672 -6.96,-2.039 -10.78,-2.039 -9.61,0 -17.43,4.4609 -23.44,13.4414 l -91.41,146.2496 h -77.19 V 82.668 c 0,-7.6094 -2.65,-14.1407 -7.96,-19.5313 -5.32,-5.3086 -11.8,-7.9687 -19.38,-7.9687 -7.62,0 -14.14,2.6601 -19.53,7.9687 -5.31,5.3906 -7.97,11.9219 -7.97,19.5313 z" /><path
         id="path18"
         style="fill:#ffffff;stroke:#000000;stroke-width:12;stroke-linecap:butt;stroke-linejoin:miter;stroke-miterlimit:4;stroke-dasharray:none;stroke-opacity:1"
         d="m 1541.72,249.859 -45.16,116.098 -45,-116.098 z M 1332.34,95.0195 1470.47,450.637 c 5.51,12.39 14.22,18.601 26.09,18.601 12.27,0 21.02,-6.211 26.25,-18.601 L 1661.56,93.7695 c 1.33,-3.4414 2.03,-7.1523 2.03,-11.1015 0,-7.6094 -2.73,-14.1407 -8.12,-19.5313 -5.31,-5.3086 -11.8,-7.9687 -19.38,-7.9687 -7.61,0 -13.98,2.6601 -19.06,7.9687 -2.81,2.8203 -4.92,5.793 -6.25,8.9102 l -47.97,122.8121 h -132.5 L 1382.19,72.0469 c -1.37,-3.1172 -3.4,-6.0899 -6.1,-8.9102 -5.43,-5.3086 -11.95,-7.9687 -19.53,-7.9687 -7.5,0 -13.9,2.6601 -19.22,7.9687 -5.23,5.3906 -7.81,11.9219 -7.81,19.5313 0,4.0703 0.94,8.1718 2.81,12.3515 z" /><path
         id="path20"
         style="fill:#ff3300;fill-opacity:1;fill-rule:nonzero;stroke:none"
         d="m 861.762,229 13.828,5.699 33.32,13.789 1.36,0.633 v 9.41 l -5.739,13.789 -13.793,33.321 -57.187,138.05 -0.582,1.368 h -19.02 l -13.789,-5.75 -33.32,-13.789 -1.371,-0.622 v -9.41 L 771.172,401.699 785,368.379 842.148,230.328 842.77,229 Z" /><path
         id="path22"
         style="fill:#ff3300;fill-opacity:1;fill-rule:evenodd;stroke:none"
         d="m 842.77,229 h 18.992 l 13.828,5.699 33.32,13.789 1.36,0.633 v 9.41 l -5.739,13.789 -13.793,33.321 -57.187,138.05 -0.582,1.368 h -19.02 l -13.789,-5.75 -33.32,-13.789 -1.371,-0.622 v -9.41 L 771.172,401.699 785,368.379 842.148,230.328 842.77,229" /><path
         id="path24"
         style="fill:none;stroke:#000000;stroke-width:12;stroke-linecap:square;stroke-linejoin:miter;stroke-miterlimit:10;stroke-dasharray:none;stroke-opacity:1"
         d="m 842.77,229 h 18.992 l 13.828,5.707 33.32,13.793 1.36,0.617 v 9.41 l -5.739,13.789 -13.793,33.321 -57.187,138.051 -0.582,1.371 h -19.02 l -13.789,-5.743 -33.32,-13.789 -1.371,-0.629 v -9.41 L 771.172,401.699 785,368.379 842.148,230.328 842.77,229" /><path
         id="path26"
         style="fill:#ff3300;fill-opacity:1;fill-rule:nonzero;stroke:none"
         d="m 829.41,379.039 5.75,13.789 13.789,33.363 0.539,1.368 -6.679,6.679 -33.321,13.782 -138.008,57.191 -13.82,5.711 -1.371,0.539 -13.437,-13.473 -5.743,-13.789 -13.789,-33.32 -0.55,-1.41 6.679,-6.641 33.321,-13.789 138.011,-57.187 13.828,-5.704 1.371,-0.546 z" /><path
         id="path28"
         style="fill:#ff3300;fill-opacity:1;fill-rule:evenodd;stroke:none"
         d="m 815.98,365.602 13.43,13.437 5.75,13.789 13.789,33.363 0.539,1.368 -6.679,6.679 -33.321,13.782 -138.008,57.191 -13.82,5.711 -1.371,0.539 -13.437,-13.473 -5.743,-13.789 -13.789,-33.32 -0.55,-1.41 6.679,-6.641 33.321,-13.789 138.011,-57.187 13.828,-5.704 1.371,-0.546" /><path
         id="path30"
         style="fill:none;stroke:#000000;stroke-width:12;stroke-linecap:square;stroke-linejoin:miter;stroke-miterlimit:10;stroke-dasharray:none;stroke-opacity:1"
         d="m 815.98,365.598 13.43,13.441 5.75,13.789 13.789,33.36 0.539,1.371 -6.679,6.679 -33.321,13.789 -138.008,57.18 -13.82,5.711 -1.371,0.539 -13.437,-13.469 -5.743,-13.789 -13.789,-33.32 -0.55,-1.41 6.679,-6.641 33.321,-13.789 138.011,-57.191 13.828,-5.7 1.371,-0.55" /><path
         id="path32"
         style="fill:#ff3300;fill-opacity:1;fill-rule:nonzero;stroke:none"
         d="m 665.738,428.84 33.321,13.832 1.371,0.59 v 19.019 l -5.7,13.789 -13.789,33.321 -0.632,1.371 h -9.411 l -138.046,-57.153 -13.793,-5.738 -33.321,-13.793 -1.359,-0.629 v -18.98 l 5.742,-13.828 13.789,-33.321 0.578,-1.371 h 9.461 l 138,57.192 z" /><path
         id="path34"
         style="fill:#ff3300;fill-opacity:1;fill-rule:evenodd;stroke:none"
         d="m 513.949,365.949 138,57.192 13.789,5.699 33.321,13.832 1.371,0.59 v 19.019 l -5.7,13.789 -13.789,33.321 -0.632,1.371 h -9.411 l -138.046,-57.153 -13.793,-5.738 -33.321,-13.793 -1.359,-0.629 v -18.98 l 5.742,-13.828 13.789,-33.321 0.578,-1.371 h 9.461" /><path
         id="path36"
         style="fill:none;stroke:#000000;stroke-width:12;stroke-linecap:square;stroke-linejoin:miter;stroke-miterlimit:10;stroke-dasharray:none;stroke-opacity:1"
         d="m 513.949,365.957 138,57.18 13.789,5.711 33.321,13.82 1.371,0.59 v 19.019 l -5.7,13.789 -13.789,33.321 -0.632,1.371 h -9.411 l -138.046,-57.149 -13.793,-5.742 -33.321,-13.789 -1.359,-0.621 v -18.988 l 5.742,-13.832 13.789,-33.321 0.578,-1.359 h 9.461" /><path
         id="path38"
         style="fill:#ff3300;fill-opacity:1;fill-rule:nonzero;stroke:none"
         d="m 503.238,449.469 -1.359,0.511 -6.68,-6.64 -57.148,-138.051 -5.75,-13.789 -13.781,-33.32 -0.551,-1.41 13.441,-13.43 13.82,-5.711 33.321,-13.82 1.371,-0.508 6.68,6.64 57.148,138.047 5.738,13.782 13.793,33.32 0.547,1.41 -13.437,13.441 -13.832,5.7 z" /><path
         id="path40"
         style="fill:#ff3300;fill-opacity:1;fill-rule:evenodd;stroke:none"
         d="m 479.922,223.301 6.68,6.64 57.148,138.047 5.738,13.782 13.793,33.32 0.547,1.41 -13.437,13.441 -13.832,5.7 -33.321,13.828 -1.359,0.511 -6.68,-6.64 -57.148,-138.051 -5.75,-13.789 -13.781,-33.32 -0.551,-1.41 13.441,-13.43 13.82,-5.711 33.321,-13.82 1.371,-0.508" /><path
         id="path42"
         style="fill:none;stroke:#000000;stroke-width:12;stroke-linecap:square;stroke-linejoin:miter;stroke-miterlimit:10;stroke-dasharray:none;stroke-opacity:1"
         d="m 479.922,223.297 6.68,6.641 57.148,138.05 5.738,13.789 13.793,33.321 0.547,1.402 -13.437,13.438 -13.832,5.699 -33.321,13.832 -1.359,0.508 -6.68,-6.637 -57.148,-138.051 -5.75,-13.789 -13.781,-33.32 -0.551,-1.403 13.441,-13.437 13.82,-5.703 33.321,-13.828 1.371,-0.512" /><path
         id="path44"
         style="fill:#ff3300;fill-opacity:1;fill-rule:nonzero;stroke:none"
         d="m 563.441,105.02 v 9.41 l -13.793,33.32 -57.187,138.051 -5.699,13.789 -0.59,1.359 H 467.148 L 453.32,295.211 420,281.422 418.672,280.84 v -9.461 l 13.789,-33.32 57.187,-138 5.704,-13.7895 0.589,-1.3711 h 19.02 l 13.789,5.7032 33.359,13.8284 z" /><path
         id="path46"
         style="fill:#ff3300;fill-opacity:1;fill-rule:evenodd;stroke:none"
         d="m 514.961,84.8984 13.789,5.7032 33.359,13.8284 1.332,0.59 v 9.41 l -13.793,33.32 -57.187,138.051 -5.699,13.789 -0.59,1.359 H 467.148 L 453.32,295.211 420,281.422 418.672,280.84 v -9.461 l 13.789,-33.32 57.187,-138 5.704,-13.7895 0.589,-1.3711 h 19.02" /><path
         id="path48"
         style="fill:none;stroke:#000000;stroke-width:12;stroke-linecap:square;stroke-linejoin:miter;stroke-miterlimit:10;stroke-dasharray:none;stroke-opacity:1"
         d="m 514.961,84.8984 13.789,5.6993 33.359,13.8323 1.332,0.59 v 9.41 l -13.793,33.32 -57.187,138.047 -5.699,13.793 -0.59,1.367 H 467.148 L 453.32,295.207 420,281.43 l -1.328,-0.59 v -9.453 l 13.789,-33.321 57.187,-138.007 5.704,-13.7895 0.589,-1.3711 h 19.02" /><path
         id="path50"
         style="fill:#ff3300;fill-opacity:1;fill-rule:nonzero;stroke:none"
         d="m 699.879,65.25 5.711,13.7891 0.539,1.4101 -6.68,6.6406 -33.32,13.8322 -138.008,57.137 -13.781,5.75 -1.41,0.5 -13.442,-13.43 -13.789,-33.32 -5.738,-13.789 -0.512,-1.411 6.641,-6.6402 L 519.41,81.8906 657.461,24.7383 671.25,19 l 1.41,-0.5117 13.43,13.4414 z" /><path
         id="path52"
         style="fill:#ff3300;fill-opacity:1;fill-rule:evenodd;stroke:none"
         d="m 672.66,18.4883 13.43,13.4414 13.789,33.3203 5.711,13.7891 0.539,1.4101 -6.68,6.6406 -33.32,13.8322 -138.008,57.137 -13.781,5.75 -1.41,0.5 -13.442,-13.43 -13.789,-33.32 -5.738,-13.789 -0.512,-1.411 6.641,-6.6402 L 519.41,81.8906 657.461,24.7383 671.25,19 l 1.41,-0.5117" /><path
         id="path54"
         style="fill:none;stroke:#000000;stroke-width:12;stroke-linecap:square;stroke-linejoin:miter;stroke-miterlimit:10;stroke-dasharray:none;stroke-opacity:1"
         d="m 672.66,18.5 13.43,13.4297 13.789,33.3203 5.711,13.7891 0.539,1.4101 -6.68,6.6406 -33.32,13.8282 -138.008,57.148 -13.781,5.743 -1.41,0.507 -13.442,-13.437 -13.789,-33.32 -5.738,-13.789 -0.512,-1.411 6.641,-6.6402 L 519.41,81.8867 657.461,24.75 671.25,19 l 1.41,-0.5" /><path
         id="path56"
         style="fill:#ff3300;fill-opacity:1;fill-rule:nonzero;stroke:none"
         d="m 829.379,90.1289 13.781,5.7109 1.371,0.6211 v 19.0271 l -13.793,33.321 -5.738,13.781 -0.59,1.371 H 815 L 676.949,106.77 643.629,92.9883 629.84,87.2813 628.48,86.6602 V 67.6289 l 13.79,-33.3203 5.742,-13.7891 0.578,-1.3593 h 9.422 l 138.039,57.1796 z" /><path
         id="path58"
         style="fill:#ff3300;fill-opacity:1;fill-rule:evenodd;stroke:none"
         d="m 658.012,19.1602 138.039,57.1796 33.328,13.7891 13.781,5.7109 1.371,0.6211 v 19.0271 l -13.793,33.321 -5.738,13.781 -0.59,1.371 H 815 L 676.949,106.77 643.629,92.9883 629.84,87.2813 628.48,86.6602 V 67.6289 l 13.79,-33.3203 5.742,-13.7891 0.578,-1.3593 h 9.422" /><path
         id="path60"
         style="fill:none;stroke:#000000;stroke-width:12;stroke-linecap:square;stroke-linejoin:miter;stroke-miterlimit:10;stroke-dasharray:none;stroke-opacity:1"
         d="m 658.012,19.1563 138.039,57.1914 33.328,13.789 13.781,5.7031 1.371,0.6172 v 19.031 l -13.793,33.321 -5.738,13.789 -0.59,1.359 H 815 l -138.051,-57.18 -33.32,-13.7887 -13.789,-5.711 -1.36,-0.621 V 67.6367 l 13.79,-33.3203 5.742,-13.7891 0.578,-1.371 h 9.422" /><path
         id="path62"
         style="fill:#ff3300;fill-opacity:1;fill-rule:nonzero;stroke:none"
         d="m 778.551,100.02 13.789,-5.7505 33.32,-13.7812 1.41,-0.5469 6.641,6.6797 13.789,33.3199 57.191,138.008 5.7,13.821 0.55,1.371 -13.441,13.437 -13.789,5.742 -33.359,13.789 -1.372,0.551 -6.679,-6.68 -13.781,-33.32 -57.192,-138.012 -5.707,-13.828 -0.543,-1.371 z" /><path
         id="path64"
         style="fill:#ff3300;fill-opacity:1;fill-rule:evenodd;stroke:none"
         d="m 827.07,79.9414 6.641,6.6797 13.789,33.3199 57.191,138.008 5.7,13.821 0.55,1.371 -13.441,13.437 -13.789,5.742 -33.359,13.789 -1.372,0.551 -6.679,-6.68 -13.781,-33.32 -57.192,-138.012 -5.707,-13.828 -0.543,-1.371 13.473,-13.429 13.789,-5.7505 33.32,-13.7812 1.41,-0.5469" /><path
         id="path66"
         style="fill:none;stroke:#000000;stroke-width:12;stroke-linecap:square;stroke-linejoin:miter;stroke-miterlimit:10;stroke-dasharray:none;stroke-opacity:1"
         d="m 827.07,79.9375 6.641,6.6797 13.789,33.3208 57.191,138.011 5.7,13.828 0.55,1.36 -13.441,13.441 -13.789,5.738 -33.359,13.793 -1.372,0.547 -6.679,-6.679 -13.781,-33.321 -57.192,-138.008 -5.707,-13.832 -0.543,-1.359 13.473,-13.437 13.789,-5.7427 33.32,-13.789 1.41,-0.5508" /></g></g></svg>